<svg width="15" height="20" viewBox="0 0 15 20" fill="none" xmlns="http://www.w3.org/2000/svg">
<path d="M14.0741 20H0.740741C0.544284 20 0.355874 19.922 0.216958 19.783C0.0780421 19.6441 0 19.4557 0 19.2593V3.7037C0 3.50725 0.0780421 3.31884 0.216958 3.17992C0.355874 3.04101 0.544284 2.96296 0.740741 2.96296H4.44445C4.44445 2.17714 4.75661 1.4235 5.31228 0.867832C5.86794 0.312168 6.62158 0 7.40741 0C8.19324 0 8.94688 0.312168 9.50254 0.867832C10.0582 1.4235 10.3704 2.17714 10.3704 2.96296H14.0741C14.2705 2.96296 14.4589 3.04101 14.5979 3.17992C14.7368 3.31884 14.8148 3.50725 14.8148 3.7037V19.2593C14.8148 19.4557 14.7368 19.6441 14.5979 19.783C14.4589 19.922 14.2705 20 14.0741 20ZM13.7037 4.44444C13.7037 4.09593 13.6811 4.07407 13.3333 4.07407H9.62963C9.62963 2.68 8.79852 1.11111 7.40741 1.11111C6.0163 1.11111 5.18519 2.68 5.18519 4.07407H1.48148C1.1337 4.07407 1.11111 4.28778 1.11111 4.63667V18.5185C1.11111 18.867 1.1337 18.8889 1.48148 18.8889H13.3333C13.6811 18.8889 13.7037 18.4967 13.7037 18.1481V4.44444ZM2.59259 15.1852C2.59259 14.7761 2.92423 14.4444 3.33333 14.4444H11.4815C11.8906 14.4444 12.2222 14.7761 12.2222 15.1852C12.2222 15.5943 11.8906 15.9259 11.4815 15.9259H3.33333C2.92423 15.9259 2.59259 15.5943 2.59259 15.1852ZM2.59259 11.8519C2.59259 11.4428 2.92423 11.1111 3.33333 11.1111H8.51852C8.92762 11.1111 9.25926 11.4428 9.25926 11.8519C9.25926 12.261 8.92762 12.5926 8.51852 12.5926H3.33333C2.92423 12.5926 2.59259 12.261 2.59259 11.8519ZM2.59259 8.14815C2.59259 7.73905 2.92423 7.40741 3.33333 7.40741H8.51852C8.92762 7.40741 9.25926 7.73905 9.25926 8.14815C9.25926 8.55725 8.92762 8.88889 8.51852 8.88889H3.33333C2.92423 8.88889 2.59259 8.55725 2.59259 8.14815ZM7.40741 4.81482C7.2615 4.81482 7.11701 4.78608 6.9822 4.73024C6.8474 4.6744 6.72491 4.59255 6.62173 4.48938C6.51856 4.3862 6.43671 4.26371 6.38088 4.12891C6.32504 3.9941 6.2963 3.84962 6.2963 3.7037C6.2963 3.55779 6.32504 3.41331 6.38088 3.2785C6.43671 3.14369 6.51856 3.02121 6.62173 2.91803C6.72491 2.81485 6.8474 2.73301 6.9822 2.67717C7.11701 2.62133 7.2615 2.59259 7.40741 2.59259C7.70209 2.59259 7.98471 2.70966 8.19308 2.91803C8.40146 3.1264 8.51852 3.40902 8.51852 3.7037C8.51852 3.99839 8.40146 4.281 8.19308 4.48938C7.98471 4.69775 7.70209 4.81482 7.40741 4.81482Z" fill="#0567FB"/>
</svg>
