<svg width="19" height="23" viewBox="0 0 19 23" fill="none" xmlns="http://www.w3.org/2000/svg">
<path d="M9.54272 6.55236C8.64521 6.55236 7.25633 5.53177 5.7936 5.56774C3.86224 5.59331 2.09182 6.68775 1.09679 8.42124C-0.907476 11.9005 0.579864 17.0395 2.5349 19.8674C3.49395 21.244 4.62532 22.7929 6.12496 22.7446C7.56402 22.683 8.10367 21.8101 9.85042 21.8101C11.5839 21.8101 12.0753 22.7446 13.5995 22.7077C15.1494 22.683 16.133 21.3065 17.0798 19.9167C18.1742 18.3185 18.6287 16.7687 18.6533 16.6835C18.6164 16.6712 15.6407 15.5275 15.6047 12.0852C15.5801 9.20704 17.9527 7.83047 18.0635 7.76893C16.7106 5.79023 14.6334 5.56869 13.9072 5.51946C12.0137 5.37177 10.4279 6.55141 9.54272 6.55141V6.55236ZM12.7408 3.64963C13.5389 2.69152 14.0663 1.35188 13.9195 0.0235901C12.7768 0.072821 11.3993 0.785722 10.5756 1.74478C9.83716 2.59306 9.19905 3.95827 9.37042 5.261C10.6372 5.35946 11.9408 4.60964 12.7399 3.65058" fill="white"/>
</svg>
