<svg width="16" height="16" viewBox="0 0 16 16" fill="none" xmlns="http://www.w3.org/2000/svg">
<path d="M10 15.1666H6C2.38 15.1666 0.833328 13.6199 0.833328 9.99992V5.99992C0.833328 2.37992 2.38 0.833252 6 0.833252H10C13.62 0.833252 15.1667 2.37992 15.1667 5.99992V9.99992C15.1667 13.6199 13.62 15.1666 10 15.1666ZM6 1.83325C2.92666 1.83325 1.83333 2.92659 1.83333 5.99992V9.99992C1.83333 13.0733 2.92666 14.1666 6 14.1666H10C13.0733 14.1666 14.1667 13.0733 14.1667 9.99992V5.99992C14.1667 2.92659 13.0733 1.83325 10 1.83325H6Z" fill="#0A0A0A"/>
<path d="M7.16 10.8534C7.03333 10.8534 6.90667 10.8068 6.80667 10.7068C6.61333 10.5134 6.61333 10.1934 6.80667 10.0001L8.80667 8.0001L6.80667 6.0001C6.61333 5.80677 6.61333 5.48677 6.80667 5.29344C7 5.1001 7.32 5.1001 7.51333 5.29344L9.86667 7.64677C10.06 7.8401 10.06 8.1601 9.86667 8.35344L7.51333 10.7068C7.41333 10.8068 7.28667 10.8534 7.16 10.8534Z" fill="#0A0A0A"/>
</svg>
