<svg width="34" height="34" viewBox="0 0 34 34" fill="none" xmlns="http://www.w3.org/2000/svg">
<path d="M31.2211 9.66447C30.1624 10.1351 29.023 10.4525 27.8275 10.5946C29.0482 9.86382 29.9841 8.70631 30.4255 7.32548C29.2838 8.00303 28.0199 8.49468 26.6735 8.76009C25.5961 7.61193 24.0603 6.89404 22.3609 6.89404C19.0982 6.89404 16.4529 9.53937 16.4529 12.8026C16.4529 13.265 16.5049 13.7158 16.6061 14.149C11.6954 13.9023 7.3413 11.5504 4.42706 7.97556C3.91846 8.84778 3.62733 9.86265 3.62733 10.9465C3.62733 12.9961 4.67026 14.8049 6.2557 15.8642C5.2876 15.8332 4.3762 15.5672 3.57939 15.1247C3.5788 15.1492 3.5788 15.1743 3.5788 15.1995C3.5788 18.0617 5.61556 20.4492 8.31876 20.9929C7.82302 21.1274 7.30097 21.1998 6.76196 21.1998C6.3808 21.1998 6.01075 21.163 5.65005 21.0934C6.40243 23.4406 8.58417 25.1494 11.1693 25.1968C9.14714 26.7816 6.60003 27.7263 3.83135 27.7263C3.3549 27.7263 2.8843 27.6983 2.42188 27.6433C5.03739 29.3206 8.14279 30.298 11.4791 30.298C22.3475 30.298 28.2899 21.2951 28.2899 13.4872C28.2899 13.2311 28.2847 12.9757 28.2736 12.7219C29.4276 11.8906 30.4296 10.8495 31.2211 9.66447Z" fill="#1DA1F2"/>
</svg>
