<svg width="34" height="34" viewBox="0 0 34 34" fill="none" xmlns="http://www.w3.org/2000/svg">
<path d="M28.8344 10.5933L27.8505 9.60938L18.7362 18.7237C17.5969 19.8629 15.6809 19.8629 14.5416 18.7237L5.42729 9.66116L4.44336 10.6451L11.2273 17.429L4.44336 24.213L5.42729 25.1969L12.2112 18.4129L13.5576 19.7594C14.3862 20.5879 15.4737 21.054 16.613 21.054C17.7523 21.054 18.8398 20.5879 19.6684 19.7594L21.0148 18.4129L27.7987 25.1969L28.7826 24.213L21.9987 17.429L28.8344 10.5933Z" fill="black"/>
<path d="M26.9194 26.957H6.46407C5.27299 26.957 4.28906 25.9731 4.28906 24.782V10.1784C4.28906 8.98735 5.27299 8.00342 6.46407 8.00342H26.9194C28.1105 8.00342 29.0944 8.98735 29.0944 10.1784V24.782C29.0944 25.9731 28.1105 26.957 26.9194 26.957ZM6.41228 9.40163C5.99799 9.40163 5.68728 9.71234 5.68728 10.1266V24.7302C5.68728 25.1445 5.99799 25.4552 6.41228 25.4552H26.8676C27.2819 25.4552 27.5926 25.1445 27.5926 24.7302V10.1266C27.5926 9.71234 27.2819 9.40163 26.8676 9.40163H6.41228Z" fill="black"/>
</svg>
