<svg width="69" height="69" viewBox="0 0 69 69" fill="none" xmlns="http://www.w3.org/2000/svg">
<path d="M32.1518 34.9072L30.4781 41.689C32.5449 42.2085 38.9139 44.2753 39.8575 40.4506C40.8404 36.4601 34.2158 35.4267 32.1518 34.9072ZM34.4348 25.6485L32.9184 31.8013C34.637 32.2338 39.9389 34.0029 40.7982 30.5236C41.6912 26.8926 36.1535 26.0838 34.4348 25.6485ZM34.5781 6.49658C29.024 6.49658 23.5946 8.14356 18.9765 11.2293C14.3585 14.3149 10.7591 18.7008 8.63366 23.8321C6.5082 28.9634 5.95208 34.6098 7.03563 40.0571C8.11918 45.5045 10.7937 50.5082 14.7211 54.4356C18.6484 58.3629 23.6522 61.0375 29.0995 62.121C34.5469 63.2046 40.1933 62.6485 45.3246 60.523C50.4559 58.3975 54.8417 54.7982 57.9274 50.1801C61.0131 45.5621 62.6601 40.1327 62.6601 34.5786C62.6601 30.8908 61.9337 27.2391 60.5225 23.8321C59.1112 20.425 57.0427 17.3293 54.435 14.7216C51.8274 12.114 48.7317 10.0455 45.3246 8.6342C41.9175 7.22295 38.2658 6.49658 34.5781 6.49658ZM46.8162 30.5769C46.7572 31.6542 46.3438 32.6818 45.6405 33.5C44.9371 34.3181 43.9831 34.8809 42.9268 35.1009C43.6212 35.3836 44.2495 35.807 44.7721 36.3445C45.2947 36.8821 45.7003 37.522 45.9634 38.224C46.2264 38.9261 46.3412 39.675 46.3004 40.4236C46.2597 41.1722 46.0643 41.9042 45.7266 42.5736C44.081 47.325 40.1748 47.7266 34.9796 46.7325L33.7188 51.8434L30.6719 51.074L31.9159 46.0333C31.1045 45.831 30.2956 45.6185 29.4896 45.3958L28.24 50.4618L25.1959 49.6952L26.4596 44.573C25.7463 44.3905 25.0246 44.1939 24.286 44.0085L20.3208 43.0088L21.8344 39.4817C21.8344 39.4817 24.081 40.0855 24.0473 40.0406C24.187 40.0857 24.3343 40.1026 24.4807 40.0902C24.627 40.0778 24.7694 40.0365 24.8995 39.9685C25.0297 39.9006 25.145 39.8074 25.2388 39.6944C25.3326 39.5814 25.403 39.4509 25.4458 39.3104L28.8634 25.4407C28.9072 25.0161 28.7834 24.5913 28.5185 24.2566C28.2536 23.9219 27.8685 23.7039 27.4452 23.6491C27.4902 23.6182 25.2296 23.0931 25.2296 23.0931L26.0439 19.8018L30.2422 20.8633L30.2394 20.8802C30.8712 21.0375 31.5227 21.1891 32.1855 21.3407L33.4323 16.2804L36.4792 17.0498L35.2548 22.0091C36.072 22.2 36.8948 22.3882 37.698 22.5904L38.9111 17.662L41.958 18.4314L40.7084 23.4918C44.5556 24.8313 47.3694 26.842 46.8162 30.5769Z" fill="#A1A1A1"/>
</svg>
