<svg width="39" height="39" viewBox="0 0 39 39" fill="none" xmlns="http://www.w3.org/2000/svg">
<path d="M3.75217 27.334H19.5035" stroke="#FF9B00" stroke-width="2.3627" stroke-miterlimit="10" stroke-linecap="round" stroke-linejoin="round"/>
<path d="M7.24892 21.7266H16.0068C18.8105 21.7266 19.5035 22.4196 19.5035 25.1919V31.6657C19.5035 34.4379 18.8105 35.131 16.0068 35.131H7.24892C4.44518 35.131 3.75217 34.4379 3.75217 31.6657V25.1919C3.75217 22.4196 4.44518 21.7266 7.24892 21.7266Z" stroke="#FF9B00" stroke-width="2.3627" stroke-linecap="round" stroke-linejoin="round"/>
<path d="M35.2548 24.0894C35.2548 30.1851 30.3247 35.1153 24.2289 35.1153L25.8828 32.3588" stroke="#FF9B00" stroke-width="2.3627" stroke-linecap="round" stroke-linejoin="round"/>
<path d="M3.75217 14.6385C3.75217 8.54272 8.68233 3.61255 14.7781 3.61255L13.1242 6.36903" stroke="#FF9B00" stroke-width="2.3627" stroke-linecap="round" stroke-linejoin="round"/>
<path d="M29.7419 17.7888C33.6565 17.7888 36.83 14.6153 36.83 10.7007C36.83 6.786 33.6565 3.61255 29.7419 3.61255C25.8272 3.61255 22.6538 6.786 22.6538 10.7007C22.6538 14.6153 25.8272 17.7888 29.7419 17.7888Z" stroke="#FF9B00" stroke-width="2.3627" stroke-linecap="round" stroke-linejoin="round"/>
</svg>
