<svg width="215" height="129" viewBox="0 0 215 129" fill="none" xmlns="http://www.w3.org/2000/svg">
<path d="M0.720122 68L18.0326 68.5257L9.83171 53.2698L0.720122 68ZM216.639 121.966L215.152 122.167L216.639 121.966ZM9.19578 65.2503C10.9181 64.3805 12.6784 63.5127 14.474 62.6493L13.174 59.9456C11.3609 60.8174 9.58316 61.6938 7.84346 62.5724L9.19578 65.2503ZM19.7642 60.1665C21.5181 59.3632 23.3007 58.5661 25.1098 57.7774L23.911 55.0274C22.0849 55.8234 20.2854 56.628 18.5149 57.4389L19.7642 60.1665ZM30.5129 55.4806C32.3089 54.7364 34.1274 54.0021 35.9663 53.2795L34.8691 50.4873C33.013 51.2167 31.1774 51.9579 29.3645 52.709L30.5129 55.4806ZM41.4273 51.1916C43.2489 50.5145 45.0876 49.8503 46.9414 49.2008L45.9495 46.3695C44.0775 47.0254 42.221 47.696 40.382 48.3796L41.4273 51.1916ZM52.5001 47.3134C54.3488 46.7057 56.2101 46.114 58.0824 45.5398L57.2028 42.6717C55.311 43.2518 53.4306 43.8496 51.5633 44.4634L52.5001 47.3134ZM63.7012 43.8799C65.5781 43.3467 67.4638 42.8324 69.3565 42.3387L68.5994 39.4359C66.6852 39.9351 64.7786 40.4551 62.8814 40.9941L63.7012 43.8799ZM75.0392 40.9247C76.9396 40.4748 78.845 40.0471 80.7538 39.6432L80.1326 36.7082C78.1999 37.1172 76.2711 37.5502 74.3482 38.0054L75.0392 40.9247ZM86.4946 38.5031C88.4151 38.147 90.337 37.8166 92.2585 37.5134L91.7909 34.5501C89.8421 34.8576 87.8938 35.1926 85.9478 35.5533L86.4946 38.5031ZM98.0522 36.6828C99.9908 36.4334 101.927 36.2135 103.859 36.0247L103.567 33.0389C101.604 33.2308 99.6373 33.4542 97.6694 33.7074L98.0522 36.6828ZM109.673 35.5511C111.627 35.4245 113.575 35.3317 115.514 35.2746L115.425 32.2759C113.45 32.3341 111.467 32.4285 109.479 32.5574L109.673 35.5511ZM121.348 35.2123C123.299 35.229 125.238 35.2843 127.165 35.3799L127.314 32.3836C125.345 32.2859 123.364 32.2295 121.374 32.2124L121.348 35.2123ZM132.977 35.7965C134.921 35.9799 136.85 36.2076 138.76 36.4813L139.185 33.5116C137.226 33.2308 135.25 32.9976 133.259 32.8098L132.977 35.7965ZM144.486 37.4526C146.392 37.8279 148.278 38.253 150.14 38.7298L150.884 35.8235C148.966 35.3323 147.025 34.8949 145.066 34.5091L144.486 37.4526ZM155.718 40.3373C157.563 40.9309 159.381 41.5801 161.172 42.2871L162.274 39.4968C160.421 38.7653 158.541 38.0943 156.637 37.4815L155.718 40.3373ZM166.474 44.5926C168.214 45.4221 169.924 46.3122 171.599 47.265L173.082 44.657C171.342 43.6678 169.569 42.7444 167.765 41.8845L166.474 44.5926ZM176.51 50.304C178.099 51.3715 179.652 52.5026 181.169 53.6995L183.028 51.3442C181.45 50.0996 179.835 48.9236 178.184 47.8141L176.51 50.304ZM185.559 57.4442C186.965 58.7402 188.334 60.101 189.664 61.5289L191.859 59.4839C190.477 58.0003 189.054 56.5858 187.592 55.2383L185.559 57.4442ZM193.432 65.8855C194.618 67.3629 195.768 68.9026 196.879 70.5063L199.345 68.7979C198.194 67.1368 197.002 65.5405 195.771 64.0074L193.432 65.8855ZM200.023 75.3919C200.994 77.0184 201.93 78.7033 202.829 80.4481L205.496 79.0741C204.569 77.2745 203.603 75.5347 202.598 73.8533L200.023 75.3919ZM205.322 85.6576C206.1 87.4118 206.844 89.2207 207.552 91.0854L210.357 90.0205C209.63 88.1058 208.865 86.2464 208.064 84.4411L205.322 85.6576ZM209.457 96.5075C210.047 98.3259 210.605 100.193 211.131 102.11L214.024 101.316C213.487 99.3562 212.915 97.4451 212.311 95.5819L209.457 96.5075ZM212.547 107.739C212.974 109.599 213.373 111.502 213.742 113.449L216.689 112.89C216.313 110.906 215.907 108.966 215.471 107.068L212.547 107.739ZM214.724 119.199C214.874 120.178 215.017 121.168 215.152 122.167L218.125 121.764C217.987 120.748 217.842 119.742 217.69 118.745L214.724 119.199ZM215.152 122.167C215.299 123.247 215.435 124.302 215.563 125.335L218.54 124.969C218.411 123.923 218.273 122.855 218.125 121.764L215.152 122.167ZM216.215 131.259C216.405 133.242 216.556 135.125 216.67 136.911L219.663 136.721C219.548 134.9 219.394 132.985 219.201 130.972L216.215 131.259ZM216.921 142.926C216.958 145.016 216.932 146.935 216.85 148.69L219.847 148.83C219.932 147.003 219.958 145.019 219.921 142.873L216.921 142.926ZM216.341 154.197C216.009 156.431 215.553 158.225 215.012 159.625L217.81 160.707C218.452 159.045 218.954 157.024 219.309 154.638L216.341 154.197ZM212.157 163.389C211.181 163.813 209.862 163.693 208.1 162.546L206.463 165.06C208.669 166.496 211.088 167.125 213.353 166.14L212.157 163.389ZM204.115 158.802C203.023 157.487 201.912 155.926 200.808 154.138L198.256 155.715C199.42 157.599 200.61 159.278 201.807 160.719L204.115 158.802ZM198.007 149.078C197.177 147.416 196.367 145.636 195.586 143.752L192.815 144.901C193.621 146.846 194.46 148.689 195.322 150.417L198.007 149.078ZM193.489 138.223C192.877 136.455 192.294 134.62 191.747 132.726L188.865 133.559C189.426 135.502 190.025 137.387 190.654 139.205L193.489 138.223ZM190.262 127.055C189.82 125.179 189.415 123.258 189.053 121.299L186.103 121.844C186.474 123.852 186.889 125.82 187.342 127.743L190.262 127.055ZM188.131 115.554C187.87 113.632 187.651 111.681 187.479 109.706L184.49 109.966C184.666 111.99 184.891 113.989 185.159 115.959L188.131 115.554ZM187.117 103.893C187.045 101.955 187.02 100.002 187.047 98.0367L184.047 97.9953C184.02 100.013 184.045 102.018 184.119 104.005L187.117 103.893ZM187.282 92.2011C187.411 90.269 187.594 88.3309 187.833 86.3914L184.856 86.0244C184.61 88.0207 184.422 90.0143 184.289 92.0003L187.282 92.2011ZM188.715 80.6167C189.063 78.7163 189.469 76.8189 189.936 74.9287L187.024 74.2092C186.542 76.1604 186.123 78.1176 185.764 80.0764L188.715 80.6167ZM191.517 69.3065C192.097 67.4721 192.74 65.6487 193.448 63.8401L190.654 62.7467C189.922 64.6188 189.257 66.5051 188.657 68.4014L191.517 69.3065ZM195.765 58.4744C196.584 56.7468 197.468 55.0368 198.42 53.3482L195.806 51.8751C194.819 53.6264 193.903 55.3991 193.054 57.1894L195.765 58.4744ZM201.477 48.3571C202.528 46.7753 203.644 45.2163 204.829 43.6834L202.455 41.8487C201.226 43.4391 200.068 45.0566 198.978 46.6978L201.477 48.3571ZM208.592 39.1668C209.849 37.765 211.17 36.3893 212.559 35.0425L210.47 32.889C209.032 34.2843 207.662 35.7102 206.358 37.1639L208.592 39.1668ZM216.928 31.0918C218.364 29.8807 219.862 28.6977 221.423 27.545L219.642 25.1314C218.029 26.3222 216.48 27.5454 214.994 28.7984L216.928 31.0918ZM226.254 24.2109C227.848 23.1822 229.502 22.1826 231.215 21.2141L229.739 18.6024C227.975 19.5993 226.272 20.6292 224.628 21.69L226.254 24.2109ZM236.341 18.5016C238.092 17.6349 239.9 16.7983 241.767 15.9937L240.579 13.2388C238.665 14.0638 236.809 14.9225 235.01 15.813L236.341 18.5016ZM247.031 13.869C248.836 13.1884 250.69 12.5359 252.596 11.9129L251.663 9.06143C249.716 9.69807 247.82 10.3654 245.973 11.062L247.031 13.869ZM258.259 10.192C260.06 9.6846 261.903 9.20211 263.789 8.74548L263.083 5.82972C261.162 6.2949 259.283 6.78675 257.445 7.30434L258.259 10.192ZM269.577 7.45414C271.491 7.06218 273.446 6.69552 275.444 6.35506L274.94 3.39771C272.91 3.74362 270.922 4.11637 268.975 4.51511L269.577 7.45414ZM281.068 5.48202C282.979 5.2137 284.926 4.96833 286.91 4.74661L286.576 1.76518C284.565 1.98997 282.59 2.23885 280.651 2.51116L281.068 5.48202ZM292.971 4.15313C294.838 3.99546 296.737 3.85786 298.666 3.74088L298.485 0.746384C296.532 0.864773 294.61 1.00406 292.718 1.16376L292.971 4.15313ZM304.442 3.45631C306.398 3.38167 308.384 3.32742 310.401 3.29407L310.352 0.29448C308.313 0.328184 306.306 0.383015 304.328 0.458491L304.442 3.45631ZM316.538 3.25716C318.393 3.26509 320.272 3.29004 322.176 3.33236L322.243 0.333098C320.321 0.290387 318.424 0.265199 316.551 0.257189L316.538 3.25716ZM327.964 3.5118C329.919 3.58922 331.899 3.68437 333.904 3.7976L334.073 0.802374C332.051 0.688209 330.054 0.592243 328.083 0.514146L327.964 3.5118ZM339.999 4.19191C341.903 4.33048 343.829 4.48484 345.777 4.65526L346.038 1.66667C344.076 1.495 342.135 1.33947 340.217 1.19982L339.999 4.19191ZM351.485 5.19417C353.408 5.38896 355.353 5.59898 357.319 5.82448L357.661 2.84402C355.682 2.61703 353.724 2.40558 351.787 2.20944L351.485 5.19417ZM363.282 6.5477C365.29 6.80442 367.321 7.07688 369.373 7.36533L369.791 4.39453C367.726 4.10436 365.683 3.83023 363.662 3.5719L363.282 6.5477ZM375.021 8.19133C376.896 8.47603 378.788 8.77375 380.698 9.08468L381.18 6.12366C379.26 5.81104 377.357 5.51166 375.472 5.22534L375.021 8.19133ZM386.481 10.0572C388.427 10.3947 390.39 10.7456 392.372 11.1101L392.915 8.15957C390.923 7.79331 388.95 7.44065 386.994 7.10139L386.481 10.0572ZM398.371 12.2443C399.38 12.4402 400.393 12.6395 401.411 12.8422L401.997 9.90002C400.975 9.69632 399.956 9.49609 398.943 9.2993L398.371 12.2443Z" fill="#0567FB"/>
</svg>
