<svg width="237" height="275" viewBox="0 0 237 275" fill="none" xmlns="http://www.w3.org/2000/svg">
<path d="M20.4494 250.004C43.4477 266.164 70.8461 274.887 98.9538 274.999C127.062 275.111 154.528 266.605 177.654 250.629C200.78 234.653 218.454 211.972 228.296 185.644C238.138 159.315 239.674 130.603 232.698 103.374C225.722 76.1457 210.569 51.7092 189.28 33.3564C167.99 15.0035 141.588 3.61604 113.629 0.727824C85.6696 -2.1604 57.4969 3.58941 32.9056 17.2027C8.31422 30.8161 -11.5143 51.6389 -23.9091 76.8664L21.6291 99.2403C29.4502 83.3218 41.962 70.1827 57.479 61.5927C72.9961 53.0027 90.773 49.3746 108.415 51.197C126.057 53.0195 142.717 60.205 156.151 71.7856C169.584 83.3662 179.146 98.7856 183.548 115.967C187.949 133.148 186.98 151.265 180.77 167.879C174.56 184.492 163.408 198.803 148.815 208.884C134.223 218.965 116.891 224.332 99.1553 224.262C81.4194 224.191 64.1311 218.687 49.6192 208.49L20.4494 250.004Z" fill="white" fill-opacity="0.15"/>
</svg>
