<svg width="24" height="24" viewBox="0 0 24 24" fill="none" xmlns="http://www.w3.org/2000/svg">
<path fill-rule="evenodd" clip-rule="evenodd" d="M8.70623 7.03874C8.77411 7.03526 8.84212 7.04289 8.90755 7.06132C9.05803 7.11017 9.19301 7.19777 9.2989 7.31532C9.53671 7.53447 9.75168 7.77717 9.9405 8.03971C10.2114 8.39907 11.2576 9.72178 11.3987 10.0266C11.4564 10.1283 11.4801 10.2458 11.4662 10.3619C11.4523 10.4781 11.4016 10.5867 11.3215 10.6719L10.7044 11.2721C10.4598 11.5149 10.1399 11.5017 9.81255 11.259C9.02232 10.4951 8.30735 9.54115 7.66575 8.86005C7.56762 8.77842 7.49517 8.67017 7.45712 8.54833C7.41907 8.4265 7.41703 8.29626 7.45126 8.17329C7.55474 7.78382 8.31299 7.06508 8.70623 7.04439V7.03874ZM11.5605 1.13807e-05C14.236 -0.000753395 16.8289 0.926251 18.8976 2.62306C20.9662 4.31986 22.3824 6.68147 22.9049 9.30544C23.4274 11.9294 23.0238 14.6534 21.763 17.0132C20.5022 19.373 18.4621 21.2225 15.9904 22.2467C13.5187 23.2709 10.7683 23.4063 8.20799 22.6299C5.64763 21.8535 3.43573 20.2133 1.94919 17.9887C0.462651 15.7642 -0.206526 13.0931 0.055688 10.4305C0.317902 7.76784 1.49528 5.27854 3.38719 3.38673C4.45904 2.31131 5.73296 1.45845 7.13565 0.877227C8.53835 0.296 10.0421 -0.00212307 11.5605 1.13807e-05ZM18.4769 4.64358C17.3889 3.55227 16.0585 2.73339 14.5941 2.25363C13.1297 1.77388 11.5727 1.64682 10.0498 1.88281C8.52702 2.1188 7.08147 2.71116 5.83095 3.61165C4.58042 4.51213 3.56029 5.69527 2.85363 7.06469C2.14698 8.43412 1.77379 9.9511 1.76447 11.4921C1.75515 13.033 2.10995 14.5544 2.79999 15.9323C3.49002 17.3102 4.49577 18.5056 5.7353 19.4211C6.97484 20.3367 8.41311 20.9465 9.93297 21.2009L9.01291 18.3692C8.81347 17.9026 8.66671 17.468 8.48609 17.007C8.14571 16.2388 7.70265 15.5204 7.16903 14.8715C6.74515 14.0869 6.52579 13.2081 6.5312 12.3164C6.85294 12.5591 7.20666 12.8526 7.55474 13.1254C8.20386 13.6353 8.89061 14.2543 9.56984 13.3569C9.69778 13.1687 9.82949 12.9975 9.96496 12.83C10.4709 12.1994 11.0565 11.6372 11.7072 11.1574C12.8851 11.1235 14.1758 10.3201 15.2125 10.4574L14.8193 9.52986L13.5022 10.0266C12.4768 10.4123 11.3121 9.04067 11.8277 8.40096C13.5906 7.39059 15.9444 5.49026 17.0846 7.55051L18.0253 9.25516C19.2653 11.4641 18.4468 12.2656 16.9153 14.403C16.3499 15.2018 15.707 15.943 14.9961 16.6156C14.6349 16.9524 14.6932 16.8452 14.9679 17.2873L16.4994 20.0118C17.7916 19.2565 18.8932 18.2148 19.7195 16.9669C20.5458 15.719 21.0748 14.2982 21.2659 12.8138C21.4569 11.3293 21.3048 9.82085 20.8213 8.40442C20.3377 6.988 19.5357 5.70138 18.4769 4.64358ZM6.52932 9.40756C6.61967 9.31562 6.73826 9.25665 6.86611 9.24011C6.93399 9.23673 7.00198 9.24436 7.06743 9.26269C7.21735 9.31159 7.35171 9.39921 7.4569 9.51669C8.17172 10.1422 8.84075 10.8181 9.45883 11.5393C9.79562 11.8479 9.87276 12.1696 9.60935 12.4801L9.12768 13.0182C8.88309 13.2628 8.57264 13.2496 8.23585 13.005C6.71371 11.7237 4.91498 11.0652 6.52932 9.40756ZM13.6094 3.64826C13.6803 3.6542 13.7496 3.67201 13.8145 3.70094C14.1588 3.85335 14.5671 4.5495 14.7289 4.86936C14.8399 5.07256 15.1523 5.62197 15.4063 6.09234L13.2294 6.9616C12.8794 6.39715 12.5671 5.81952 12.2491 5.35855C12.1607 5.25915 12.1027 5.13644 12.082 5.00501C12.0613 4.87359 12.0788 4.73899 12.1325 4.61724C12.2566 4.33501 12.5671 4.12428 12.8211 3.96624C13.0092 3.85711 13.4119 3.62192 13.6094 3.64073V3.64826ZM11.0299 5.09326C11.1007 5.09557 11.1706 5.10956 11.2369 5.13465C11.387 5.19855 11.5171 5.30193 11.6132 5.43381C11.8458 5.68182 12.0526 5.95291 12.2303 6.24286C12.3375 6.4122 12.5708 6.77345 12.8136 7.15728C12.061 7.49595 11.0506 7.67846 11.0167 8.64179C10.5727 8.03782 10.1776 7.39058 9.78809 6.89387C9.69376 6.79985 9.62837 6.68074 9.59968 6.55068C9.571 6.42061 9.58024 6.28505 9.62628 6.16008C9.78245 5.73674 10.616 5.08573 11.0374 5.09326H11.0299Z" fill="#0567FB"/>
</svg>
