<svg width="270" height="214" viewBox="0 0 270 214" fill="none" xmlns="http://www.w3.org/2000/svg">
<path d="M-151.28 83.9995L-133.967 84.5253L-142.168 69.2693L-151.28 83.9995ZM64.6389 137.965L63.1525 138.167L64.6389 137.965ZM-142.804 81.2498C-141.082 80.38 -139.322 79.5122 -137.526 78.6488L-138.826 75.9451C-140.639 76.8169 -142.417 77.6933 -144.157 78.5719L-142.804 81.2498ZM-132.236 76.166C-130.482 75.3627 -128.699 74.5656 -126.89 73.7769L-128.089 71.0269C-129.915 71.8229 -131.715 72.6275 -133.485 73.4385L-132.236 76.166ZM-121.487 71.4801C-119.691 70.7359 -117.873 70.0016 -116.034 69.279L-117.131 66.4868C-118.987 67.2162 -120.823 67.9574 -122.635 68.7085L-121.487 71.4801ZM-110.573 67.1912C-108.751 66.514 -106.912 65.8498 -105.059 65.2003L-106.051 62.369C-107.923 63.0249 -109.779 63.6955 -111.618 64.3792L-110.573 67.1912ZM-99.4999 63.3129C-97.6512 62.7052 -95.7899 62.1135 -93.9176 61.5393L-94.7972 58.6712C-96.689 59.2513 -98.5694 59.8491 -100.437 60.4629L-99.4999 63.3129ZM-88.2988 59.8794C-86.4219 59.3462 -84.5362 58.8319 -82.6435 58.3383L-83.4006 55.4354C-85.3148 55.9346 -87.2214 56.4546 -89.1186 56.9936L-88.2988 59.8794ZM-76.9608 56.9242C-75.0604 56.4743 -73.155 56.0466 -71.2462 55.6427L-71.8674 52.7077C-73.8001 53.1167 -75.7289 53.5497 -77.6518 54.0049L-76.9608 56.9242ZM-65.5054 54.5026C-63.5849 54.1466 -61.663 53.8161 -59.7415 53.5129L-60.2091 50.5496C-62.1579 50.8571 -64.1062 51.1921 -66.0522 51.5528L-65.5054 54.5026ZM-53.9478 52.6823C-52.0092 52.433 -50.0729 52.213 -48.1408 52.0242L-48.4327 49.0384C-50.3961 49.2303 -52.3627 49.4537 -54.3306 49.7069L-53.9478 52.6823ZM-42.3267 51.5506C-40.3729 51.424 -38.4254 51.3312 -36.4863 51.2741L-36.5746 48.2754C-38.5502 48.3336 -40.5329 48.428 -42.5208 48.5569L-42.3267 51.5506ZM-30.652 51.2118C-28.7014 51.2285 -26.7616 51.2838 -24.8346 51.3795L-24.6858 48.3831C-26.6553 48.2854 -28.6361 48.229 -30.6263 48.2119L-30.652 51.2118ZM-19.0226 51.796C-17.0787 51.9794 -15.1504 52.2071 -13.24 52.4808L-12.8145 49.5111C-14.7743 49.2303 -16.7505 48.9971 -18.7407 48.8093L-19.0226 51.796ZM-7.51364 53.4521C-5.60751 53.8274 -3.72216 54.2525 -1.85983 54.7293L-1.11575 51.823C-3.03433 51.3318 -4.97459 50.8944 -6.93406 50.5086L-7.51364 53.4521ZM3.71766 56.3368C5.56261 56.9304 7.3814 57.5797 9.17171 58.2866L10.2736 55.4963C8.42128 54.7649 6.54138 54.0939 4.63654 53.481L3.71766 56.3368ZM14.4741 60.5921C16.2144 61.4216 17.9236 62.3117 19.5995 63.2645L21.0822 60.6565C19.3422 59.6673 17.5689 58.7439 15.765 57.884L14.4741 60.5921ZM24.5102 66.3035C26.0986 67.371 27.6524 68.5021 29.1695 69.699L31.0277 67.3437C29.4501 66.0991 27.8345 64.9231 26.1836 63.8136L24.5102 66.3035ZM33.5586 73.4437C34.9647 74.7397 36.334 76.1006 37.6643 77.5284L39.8593 75.4834C38.4771 73.9998 37.0538 72.5853 35.5918 71.2378L33.5586 73.4437ZM41.432 81.885C42.6181 83.3624 43.7675 84.9021 44.8785 86.5058L47.3446 84.7974C46.1938 83.1363 45.0021 81.54 43.7714 80.0069L41.432 81.885ZM48.0227 91.3914C48.9944 93.0179 49.9305 94.7028 50.8294 96.4476L53.4963 95.0736C52.5691 93.274 51.6025 91.5342 50.5981 89.8528L48.0227 91.3914ZM53.3219 101.657C54.1001 103.411 54.8439 105.22 55.5519 107.085L58.3566 106.02C57.6296 104.105 56.865 102.246 56.0642 100.441L53.3219 101.657ZM57.4573 112.507C58.0471 114.325 58.6054 116.192 59.131 118.109L62.0242 117.316C61.4867 115.356 60.9153 113.445 60.3109 111.581L57.4573 112.507ZM60.5472 123.739C60.9744 125.598 61.3729 127.501 61.7417 129.448L64.6893 128.89C64.3135 126.906 63.9071 124.965 63.4711 123.067L60.5472 123.739ZM62.7245 135.199C62.8742 136.178 63.0169 137.167 63.1525 138.167L66.1253 137.764C65.9875 136.747 65.8423 135.741 65.6899 134.745L62.7245 135.199ZM63.1525 138.167C63.2988 139.246 63.4354 140.302 63.5626 141.335L66.5401 140.968C66.4113 139.923 66.2732 138.855 66.1253 137.764L63.1525 138.167ZM64.2146 147.258C64.4051 149.241 64.556 151.124 64.6695 152.911L67.6635 152.721C67.5477 150.9 67.3942 148.984 67.2009 146.971L64.2146 147.258ZM64.921 158.925C64.9577 161.016 64.9322 162.935 64.8505 164.69L67.8472 164.829C67.9323 163.003 67.9582 161.019 67.9205 158.873L64.921 158.925ZM64.3412 170.197C64.0091 172.431 63.5529 174.224 63.0116 175.625L65.81 176.706C66.4523 175.044 66.9539 173.024 67.3086 170.638L64.3412 170.197ZM60.1567 179.388C59.1813 179.813 57.8616 179.692 56.0997 178.545L54.4627 181.059C56.6692 182.496 59.0878 183.125 61.3534 182.139L60.1567 179.388ZM52.1145 174.801C51.0227 173.487 49.9125 171.925 48.808 170.138L46.2558 171.715C47.4201 173.599 48.6105 175.278 49.8067 176.718L52.1145 174.801ZM46.0067 165.078C45.1773 163.415 44.3669 161.636 43.586 159.752L40.8146 160.9C41.6206 162.845 42.4599 164.688 43.3223 166.417L46.0067 165.078ZM41.4892 154.223C40.877 152.455 40.294 150.62 39.7469 148.726L36.8648 149.558C37.4262 151.502 38.0248 153.387 38.6543 155.204L41.4892 154.223ZM38.2619 143.054C37.82 141.178 37.4152 139.258 37.0529 137.298L34.1029 137.844C34.4741 139.851 34.8889 141.82 35.3418 143.742L38.2619 143.054ZM36.1312 131.554C35.8695 129.631 35.6507 127.68 35.4791 125.706L32.4904 125.965C32.6662 127.989 32.8905 129.989 33.1586 131.959L36.1312 131.554ZM35.1172 119.892C35.0447 117.955 35.02 116.001 35.0471 114.036L32.0474 113.995C32.0196 116.012 32.0449 118.017 32.1194 120.005L35.1172 119.892ZM35.2818 108.201C35.4114 106.269 35.594 104.33 35.833 102.391L32.8555 102.024C32.6095 104.02 32.4218 106.014 32.2886 108L35.2818 108.201ZM36.7154 96.6163C37.0633 94.7159 37.4691 92.8184 37.9361 90.9282L35.0236 90.2087C34.5416 92.1599 34.1231 94.1171 33.7644 96.0759L36.7154 96.6163ZM39.517 85.306C40.0975 83.4716 40.7401 81.6482 41.448 79.8397L38.6543 78.7462C37.9216 80.6183 37.2569 82.5046 36.6568 84.4009L39.517 85.306ZM43.7652 74.4739C44.5842 72.7463 45.4681 71.0364 46.4199 69.3477L43.8065 67.8746C42.8193 69.6259 41.903 71.3986 41.0544 73.1889L43.7652 74.4739ZM49.4773 64.3567C50.5276 62.7748 51.6438 61.2158 52.8286 59.6829L50.4551 57.8482C49.2257 59.4386 48.0677 61.0561 46.978 62.6973L49.4773 64.3567ZM56.5915 55.1664C57.8487 53.7645 59.1704 52.3888 60.559 51.042L58.4704 48.8885C57.0318 50.2838 55.6617 51.7097 54.3581 53.1634L56.5915 55.1664ZM64.9284 47.0913C66.3644 45.8802 67.8621 44.6972 69.4234 43.5445L67.6417 41.131C66.0286 42.3217 64.4801 43.5449 62.9943 44.7979L64.9284 47.0913ZM74.2539 40.2104C75.8484 39.1817 77.5016 38.1821 79.2152 37.2136L77.739 34.6019C75.9752 35.5988 74.2719 36.6287 72.6276 37.6895L74.2539 40.2104ZM84.3411 34.5012C86.0922 33.6344 87.9002 32.7978 89.7666 31.9932L88.5789 29.2383C86.6651 30.0633 84.8094 30.922 83.0102 31.8125L84.3411 34.5012ZM95.0315 29.8685C96.8359 29.1879 98.6903 28.5354 100.596 27.9124L99.6634 25.0609C97.7164 25.6976 95.8198 26.3649 93.9727 27.0615L95.0315 29.8685ZM106.259 26.1915C108.06 25.6841 109.903 25.2016 111.789 24.745L111.083 21.8292C109.162 22.2944 107.283 22.7863 105.445 23.3039L106.259 26.1915ZM117.577 23.4537C119.491 23.0617 121.446 22.695 123.444 22.3546L122.94 19.3972C120.91 19.7431 118.922 20.1159 116.975 20.5146L117.577 23.4537ZM129.068 21.4815C130.979 21.2132 132.926 20.9678 134.91 20.7461L134.576 17.7647C132.565 17.9895 130.59 18.2384 128.651 18.5107L129.068 21.4815ZM140.971 20.1526C142.838 19.995 144.737 19.8574 146.666 19.7404L146.485 16.7459C144.532 16.8643 142.61 17.0036 140.718 17.1633L140.971 20.1526ZM152.442 19.4558C154.398 19.3812 156.384 19.3269 158.401 19.2936L158.352 16.294C156.313 16.3277 154.306 16.3825 152.328 16.458L152.442 19.4558ZM164.538 19.2567C166.393 19.2646 168.272 19.2896 170.176 19.3319L170.243 16.3326C168.321 16.2899 166.424 16.2647 164.551 16.2567L164.538 19.2567ZM175.964 19.5113C177.919 19.5887 179.899 19.6839 181.904 19.7971L182.073 16.8019C180.051 16.6877 178.054 16.5918 176.083 16.5137L175.964 19.5113ZM187.999 20.1914C189.903 20.33 191.829 20.4843 193.777 20.6548L194.038 17.6662C192.076 17.4945 190.135 17.339 188.217 17.1993L187.999 20.1914ZM199.485 21.1937C201.408 21.3885 203.353 21.5985 205.319 21.824L205.661 18.8435C203.682 18.6165 201.724 18.4051 199.787 18.2089L199.485 21.1937ZM211.282 22.5472C213.29 22.8039 215.321 23.0764 217.373 23.3648L217.791 20.394C215.726 20.1039 213.683 19.8297 211.662 19.5714L211.282 22.5472ZM223.021 24.1908C224.896 24.4755 226.788 24.7733 228.698 25.0842L229.18 22.1232C227.26 21.8106 225.357 21.5112 223.472 21.2249L223.021 24.1908ZM234.481 26.0568C236.427 26.3943 238.39 26.7451 240.372 27.1096L240.915 24.1591C238.923 23.7928 236.95 23.4402 234.994 23.1009L234.481 26.0568ZM246.371 28.2438C247.38 28.4397 248.393 28.639 249.411 28.8417L249.997 25.8995C248.975 25.6958 247.956 25.4956 246.943 25.2988L246.371 28.2438Z" fill="#0567FB"/>
</svg>
