<svg width="34" height="34" viewBox="0 0 34 34" fill="none" xmlns="http://www.w3.org/2000/svg">
<path fill-rule="evenodd" clip-rule="evenodd" d="M17.1426 2.9292C9.13521 2.9292 2.64258 9.58366 2.64258 17.7982C2.64258 24.3685 6.79838 29.9355 12.5595 31.9033C13.2845 32.0392 13.5499 31.5796 13.5499 31.1848C13.5499 30.8288 13.537 29.8966 13.5305 28.6538C9.49771 29.5535 8.64325 26.66 8.64325 26.66C7.98298 24.9446 7.03142 24.485 7.03142 24.485C5.71736 23.5593 7.12852 23.5788 7.12852 23.5788C8.58499 23.6823 9.34883 25.1129 9.34883 25.1129C10.6435 27.385 12.7408 26.7312 13.5694 26.3493C13.6988 25.3913 14.0743 24.731 14.4886 24.362C11.2714 23.9866 7.88588 22.7113 7.88588 17.0149C7.88588 15.3901 8.44905 14.0631 9.37472 13.0274C9.22584 12.652 8.7274 11.1372 9.51713 9.0917C9.51713 9.0917 10.7341 8.69036 13.5046 10.6129C14.6633 10.2828 15.8997 10.1209 17.1361 10.1145C18.366 10.1209 19.6089 10.2828 20.7676 10.6129C23.5381 8.69036 24.7486 9.0917 24.7486 9.0917C25.5383 11.1372 25.0399 12.652 24.891 13.0274C25.8167 14.0696 26.3799 15.3966 26.3799 17.0149C26.3799 22.7243 22.9879 23.9801 19.7578 24.3491C20.2756 24.8087 20.7417 25.7149 20.7417 27.1002C20.7417 29.0875 20.7223 30.6928 20.7223 31.1783C20.7223 31.5732 20.9812 32.0392 21.7191 31.8904C27.4932 29.929 31.6426 24.362 31.6426 17.7982C31.6426 9.58366 25.1499 2.9292 17.1426 2.9292Z" fill="black"/>
</svg>
