<svg width="22" height="23" viewBox="0 0 22 23" fill="none" xmlns="http://www.w3.org/2000/svg">
<path d="M11 0.5C13.9174 0.5 16.7153 1.65893 18.7782 3.72183C20.8411 5.78473 22 8.58262 22 11.5C22 14.4174 20.8411 17.2153 18.7782 19.2782C16.7153 21.3411 13.9174 22.5 11 22.5C8.08262 22.5 5.28473 21.3411 3.22183 19.2782C1.15893 17.2153 0 14.4174 0 11.5C0 8.58262 1.15893 5.78473 3.22183 3.72183C5.28473 1.65893 8.08262 0.5 11 0.5ZM2.0625 11.5C2.0625 13.8704 3.00413 16.1437 4.68023 17.8198C6.35634 19.4959 8.62963 20.4375 11 20.4375C13.3704 20.4375 15.6437 19.4959 17.3198 17.8198C18.9959 16.1437 19.9375 13.8704 19.9375 11.5C19.9375 9.12963 18.9959 6.85634 17.3198 5.18023C15.6437 3.50413 13.3704 2.5625 11 2.5625C8.62963 2.5625 6.35634 3.50413 4.68023 5.18023C3.00413 6.85634 2.0625 9.12963 2.0625 11.5ZM8.77112 7.68713L14.6341 11.2057C14.6848 11.2364 14.7267 11.2795 14.7558 11.3311C14.7849 11.3826 14.8002 11.4408 14.8002 11.5C14.8002 11.5592 14.7849 11.6174 14.7558 11.6689C14.7267 11.7205 14.6848 11.7636 14.6341 11.7942L8.77112 15.3129C8.71899 15.3443 8.65945 15.3613 8.59859 15.3621C8.53773 15.363 8.47774 15.3477 8.42474 15.3178C8.37174 15.2878 8.32763 15.2444 8.29693 15.1918C8.26623 15.1393 8.25004 15.0795 8.25 15.0186V7.98275C8.24979 7.92177 8.26581 7.86183 8.29641 7.80908C8.32701 7.75633 8.37109 7.71267 8.42414 7.68258C8.47718 7.6525 8.53727 7.63706 8.59825 7.63786C8.65922 7.63865 8.71889 7.65566 8.77112 7.68713Z" fill="white"/>
</svg>
