<svg width="25" height="25" viewBox="0 0 25 25" fill="none" xmlns="http://www.w3.org/2000/svg">
<path d="M14.6885 23.4463C14.3401 23.9746 13.8783 24.3759 13.3612 24.6383C12.4386 25.1118 11.3385 25.1324 10.4236 24.629C10.1138 24.455 9.82792 24.2219 9.57966 23.9258L14.6885 23.4463ZM14.6792 8.64119C14.8425 8.63777 15.0086 8.66514 15.1699 8.71987C15.4748 8.82299 15.769 9.02482 15.9953 9.29312C16.223 9.56239 16.3858 9.90155 16.4268 10.2783C16.4459 10.4548 16.4386 10.639 16.3985 10.8271C16.5695 10.9786 16.7113 11.1502 16.8183 11.3329C16.9805 11.61 17.0651 11.9174 17.0558 12.2297C17.047 12.5439 16.9429 12.8587 16.7293 13.1485C16.5925 13.3337 16.4107 13.5082 16.181 13.6645C16.2045 14.1503 16.0618 14.5867 15.8296 14.9229C15.5692 15.3002 15.1909 15.5558 14.8 15.6247C14.7164 15.9673 14.4906 16.2698 14.1984 16.4794C13.8343 16.7404 13.3583 16.8626 12.9248 16.7438C12.6013 16.6549 12.3066 16.4394 12.1062 16.0572C11.8624 16.4765 11.5247 16.6979 11.1714 16.7712C10.7516 16.8582 10.3171 16.7297 9.99017 16.4755C9.72432 16.2683 9.52541 15.9741 9.45797 15.6418C9.31967 15.6369 9.1799 15.61 9.04356 15.5636C8.74643 15.4634 8.45907 15.268 8.23427 15.0085C8.00947 14.749 7.84478 14.422 7.79395 14.0579C7.76707 13.8654 7.77147 13.6636 7.81545 13.4568C7.66445 13.322 7.53543 13.169 7.43427 13.0043C7.26371 12.7277 7.16939 12.4149 7.1733 12.0919C7.17672 11.7679 7.27984 11.439 7.50366 11.1345C7.63561 10.9542 7.81106 10.7827 8.03341 10.6253C8.02999 10.5618 8.02999 10.4992 8.03195 10.4376C8.04954 9.9641 8.2245 9.54724 8.47862 9.23643C8.74105 8.91486 9.09438 8.70277 9.45749 8.65243H9.45944C9.47264 8.5933 9.48974 8.53465 9.51075 8.47748C9.62804 8.15933 9.86995 7.88761 10.1666 7.7151C10.4642 7.54162 10.8224 7.46538 11.1714 7.53771C11.5076 7.60759 11.8296 7.81138 12.0706 8.19305C12.3115 7.81138 12.6335 7.60759 12.9698 7.53771C13.2869 7.47173 13.6124 7.52891 13.8929 7.67014C14.1695 7.80991 14.4061 8.03374 14.5512 8.30301C14.6089 8.41003 14.6524 8.52341 14.6792 8.64119ZM12.4302 8.84449V15.1365C12.4591 15.1746 12.4791 15.2201 12.4874 15.2704C12.5778 15.8192 12.8163 16.0841 13.0846 16.1579C13.3319 16.2253 13.6168 16.1462 13.8436 15.9834C14.0659 15.8241 14.2252 15.5895 14.2272 15.3437C14.2296 15.0642 14.0249 14.747 13.4766 14.467C13.4049 14.4302 13.3508 14.3666 13.3261 14.29C13.3014 14.2134 13.308 14.1301 13.3446 14.0584C13.3627 14.0229 13.3877 13.9913 13.418 13.9654C13.4483 13.9395 13.4835 13.9198 13.5214 13.9075C13.5594 13.8952 13.5994 13.8905 13.6391 13.8937C13.6789 13.8969 13.7176 13.9078 13.7532 13.926C14.3611 14.2368 14.6763 14.619 14.7872 15.0031C14.9881 14.9405 15.1831 14.7895 15.3292 14.5774C15.5095 14.316 15.6127 13.9646 15.5633 13.5707C15.5359 13.4451 15.5907 13.3107 15.708 13.2423C15.945 13.104 16.1209 12.9486 16.2406 12.7863C16.377 12.6016 16.443 12.4052 16.4488 12.2131C16.4542 12.0191 16.3985 11.8226 16.292 11.6403C16.1947 11.4742 16.0559 11.3202 15.8839 11.1912C15.8283 11.1539 15.7864 11.0994 15.7649 11.036C15.7433 10.9725 15.7432 10.9038 15.7646 10.8403C15.8233 10.6678 15.8389 10.4997 15.8218 10.3428C15.7945 10.0951 15.685 9.86831 15.5306 9.68603C15.3756 9.50277 15.1777 9.36544 14.9744 9.29654C14.8679 9.26037 14.7613 9.24425 14.6626 9.25109C14.6103 9.43142 14.5141 9.61321 14.3655 9.79012C14.2575 9.91816 14.0659 9.93478 13.9379 9.82678C13.8764 9.77501 13.8379 9.70097 13.831 9.62089C13.824 9.54082 13.8491 9.46125 13.9007 9.39965C14.1378 9.11865 14.1392 8.82299 14.0151 8.59134C13.9291 8.43252 13.7864 8.29812 13.6188 8.21358C13.4546 8.13099 13.2693 8.09678 13.0939 8.13294C12.8364 8.1867 12.5876 8.39977 12.4302 8.84449ZM13.9824 10.9073C13.9174 10.8598 13.8738 10.7885 13.8613 10.709C13.8487 10.6295 13.8682 10.5483 13.9154 10.4831C13.9629 10.4181 14.0342 10.3746 14.1137 10.362C14.1932 10.3495 14.2744 10.3689 14.3396 10.4161C14.4026 10.4621 14.4608 10.5095 14.5141 10.5574C14.9197 10.922 15.1411 11.4038 15.1811 11.9028C15.2217 12.3959 15.0839 12.9066 14.7726 13.3342C14.7301 13.3933 14.6802 13.4544 14.623 13.5174C14.5111 13.6416 14.3186 13.6513 14.1945 13.5385C14.1649 13.5117 14.1408 13.4795 14.1237 13.4435C14.1066 13.4074 14.0968 13.3684 14.0948 13.3286C14.0928 13.2888 14.0987 13.249 14.1121 13.2115C14.1255 13.1739 14.1462 13.1394 14.1729 13.1099C14.2076 13.0708 14.2438 13.0263 14.2795 12.9769C14.5033 12.6691 14.6025 12.303 14.5742 11.9502C14.5458 11.6022 14.3909 11.2655 14.108 11.0099C14.0679 10.9728 14.0254 10.9386 13.9824 10.9073ZM11.8199 9.16214L11.8179 9.1597L11.816 9.15677L11.8106 9.14797L11.8101 9.14699L11.7979 9.12402L11.7964 9.12158L11.7959 9.12109L11.7949 9.11816L11.7905 9.1079L11.7891 9.10545L11.7876 9.10252V9.10155L11.7866 9.0991L11.7827 9.08933L11.7822 9.08786L11.7817 9.08591L11.7803 9.08053L11.7798 9.07906L11.7788 9.07613L11.7783 9.07369L11.7778 9.07222L11.7769 9.06929L11.7764 9.06636L11.7759 9.06587L11.7749 9.06196L11.7744 9.05952C11.6278 8.46672 11.3429 8.19501 11.0472 8.13343C10.8532 8.09287 10.647 8.13929 10.4715 8.24143C10.2937 8.34504 10.1505 8.50386 10.083 8.68713C9.99261 8.93197 10.0459 9.23301 10.3513 9.51547C10.474 9.62934 10.4813 9.82189 10.3679 9.94455C10.2541 10.0677 10.0615 10.075 9.93885 9.96117C9.69793 9.73832 9.5518 9.5013 9.48192 9.26575C9.29084 9.30973 9.10122 9.4363 8.94973 9.62152C8.77282 9.83606 8.65162 10.1268 8.6394 10.4592C8.63598 10.5471 8.64087 10.64 8.65406 10.7362C8.6697 10.8516 8.6179 10.9713 8.51283 11.0363C8.28363 11.1775 8.11307 11.3329 7.99432 11.4947C7.84966 11.6921 7.7832 11.8989 7.78076 12.0992C7.77831 12.3006 7.84087 12.5019 7.95327 12.6852C8.04808 12.8391 8.17807 12.9789 8.33396 13.0947C8.38842 13.1324 8.42914 13.1868 8.44995 13.2496C8.47075 13.3125 8.47053 13.3804 8.4493 13.4432C8.38674 13.6279 8.37355 13.8077 8.39701 13.9749C8.43073 14.2153 8.54166 14.4347 8.69414 14.6107C8.8471 14.7876 9.04062 14.92 9.23904 14.987C9.32309 15.0158 9.40666 15.0319 9.4873 15.0344C9.60654 14.64 9.93397 14.2451 10.558 13.926C10.7076 13.8498 10.8908 13.9089 10.9671 14.0584C11.0433 14.2075 10.9842 14.3907 10.8346 14.467C10.2575 14.7617 10.0405 15.1018 10.041 15.398C10.041 15.6281 10.1725 15.8451 10.3645 15.9942C10.5595 16.1462 10.8117 16.2243 11.0472 16.1755C11.3434 16.1139 11.6288 15.8412 11.7749 15.2465C11.7842 15.2098 11.7993 15.1761 11.8199 15.1468V9.16214ZM9.55962 10.6204C9.61711 10.5639 9.69471 10.5324 9.77536 10.5331C9.85601 10.5337 9.9331 10.5664 9.98968 10.6238C10.1075 10.7436 10.1055 10.9361 9.98626 11.0539C9.71747 11.3178 9.57722 11.6594 9.56256 12.0088C9.54741 12.368 9.66469 12.7375 9.91002 13.0419C10.0151 13.1724 9.99457 13.364 9.8636 13.4695C9.80068 13.52 9.72035 13.5434 9.6402 13.5347C9.56004 13.526 9.48661 13.4859 9.43598 13.4231C9.09634 13.0014 8.93409 12.4873 8.9551 11.9844C8.97563 11.4854 9.17599 10.9972 9.55962 10.6204ZM7.18357 17.4901C6.9094 17.1397 6.62987 16.7819 6.35962 16.3714C6.08497 15.9531 5.82645 15.4898 5.60653 14.9454C5.39101 14.4069 5.22974 13.8634 5.132 13.3146C5.03426 12.7634 4.99859 12.2033 5.03426 11.6345V11.633C5.07043 11.0681 5.17696 10.4958 5.36169 9.91767C5.54495 9.34199 5.80348 8.76532 6.14361 8.18963L6.17147 8.14711C6.60641 7.4947 7.11466 6.95322 7.67275 6.51681C8.24988 6.06519 8.89833 5.71305 9.59139 5.4749L9.62853 5.46415C10.1622 5.28236 10.7095 5.16947 11.2569 5.12157C11.836 5.07075 12.4214 5.09079 12.9981 5.17582C13.5626 5.2589 14.1172 5.40502 14.647 5.60783C15.1753 5.81015 15.683 6.07209 16.1556 6.38731C16.7679 6.79635 17.3192 7.29727 17.7781 7.87833C18.2165 8.43398 18.5698 9.06294 18.8088 9.75445H18.8107C18.9397 10.1298 19.0448 10.53 19.1147 10.9532C19.1869 11.3867 19.2173 11.8261 19.2056 12.2654C19.1934 12.737 19.1308 13.2242 19.0091 13.7222C18.8948 14.187 18.7276 14.6639 18.4994 15.1492C18.0322 16.1457 17.2327 17.1353 16.4493 18.1044C16.0427 18.6082 15.6395 19.1072 15.2979 19.59C15.185 19.7508 14.9876 19.8173 14.8073 19.7718C13.7326 19.6892 10.1607 20.2033 8.83977 20.326C8.7321 20.3358 8.62443 20.3074 8.53555 20.2459C8.44667 20.1843 8.38224 20.0935 8.35351 19.9893C8.2201 19.5069 8.04368 19.0241 7.83598 18.5823C7.64245 18.1703 7.42156 17.7945 7.18357 17.4901ZM7.1303 15.8647C7.37758 16.24 7.64636 16.5845 7.91075 16.9222C8.19175 17.2814 8.4493 17.7183 8.67166 18.1914C8.84857 18.5677 9.00397 18.9679 9.13299 19.3721L14.688 18.8555C15.0081 18.4181 15.3668 17.9739 15.7295 17.5258C16.4806 16.5962 17.2469 15.6477 17.6637 14.7587C17.8646 14.3316 18.0117 13.9123 18.1114 13.5047C18.2184 13.0703 18.2722 12.649 18.2829 12.2439C18.2932 11.849 18.2639 11.4678 18.2033 11.1013C18.1431 10.7406 18.0508 10.3907 17.935 10.0545L17.9369 10.054C17.7326 9.46367 17.4301 8.92561 17.0543 8.44962C16.658 7.94772 16.1776 7.51278 15.642 7.15408C15.2329 6.88138 14.7872 6.65218 14.3176 6.47234C13.8494 6.29299 13.3602 6.16397 12.8642 6.09115C12.3599 6.01687 11.8463 5.99977 11.3365 6.04424C10.8547 6.08627 10.3811 6.18254 9.9281 6.33648L9.89194 6.35017C9.30697 6.55151 8.74887 6.84717 8.24062 7.24449C7.76219 7.61834 7.32431 8.08505 6.94606 8.64901L6.9397 8.66025C6.63182 9.1812 6.40067 9.69336 6.24086 10.1962C6.08106 10.6967 5.98869 11.1951 5.95693 11.6907C5.92614 12.1823 5.95791 12.6705 6.04392 13.1553C6.13091 13.643 6.27312 14.1254 6.4642 14.6019C6.65968 15.0862 6.88839 15.4962 7.1303 15.8647ZM14.8097 19.7708C14.8112 19.7708 14.8136 19.7703 14.8097 19.7708V19.7708ZM12.5837 0.754552C12.6023 0.527796 12.7093 0.331338 12.8691 0.19548C13.025 0.0620649 13.2337 -0.0122175 13.4546 0.0019548V0C13.4736 0.0009774 13.4922 0.0039096 13.5108 0.0073305C13.716 0.0351864 13.8963 0.139279 14.0219 0.285889C14.1558 0.441785 14.2296 0.648505 14.2155 0.871352H14.2179C14.2169 0.886013 14.216 0.900674 14.2135 0.912891L14.0737 2.65462H14.0757C14.0752 2.67319 14.0718 2.69176 14.0689 2.71082C14.0405 2.91803 13.9369 3.0964 13.7898 3.222C13.6271 3.36 13.4172 3.42939 13.2043 3.41552V3.41748C13.1858 3.4165 13.1672 3.41357 13.1486 3.41064C12.9409 3.38229 12.7626 3.27869 12.637 3.13159C12.499 2.96892 12.4296 2.75899 12.4434 2.54613H12.4415C12.4425 2.53146 12.443 2.5168 12.4459 2.50459L12.5837 0.754552ZM3.42107 3.31583C3.27108 3.15912 3.18875 2.9497 3.19186 2.73281C3.19357 2.62552 3.21643 2.51962 3.25911 2.42117C3.30179 2.32272 3.36347 2.23366 3.44061 2.15908C3.5972 2.0089 3.8067 1.92654 4.02363 1.92988C4.23231 1.93281 4.44098 2.01735 4.59737 2.17862L5.83915 3.46928C5.99505 3.63251 6.07128 3.84362 6.06835 4.0523C6.06493 4.26342 5.98039 4.46965 5.8196 4.62603C5.66275 4.77611 5.45315 4.85844 5.2361 4.85523C5.02547 4.85181 4.81875 4.76727 4.66285 4.606L3.42107 3.31583ZM0.78795 12.1906C0.567058 12.1828 0.369623 12.086 0.227412 11.9384C0.0774712 11.7809 -0.0041967 11.5705 0.000166236 11.353C0.00407583 11.1277 0.101327 10.9239 0.253313 10.7797C0.405298 10.6356 0.610552 10.5486 0.838286 10.5549L2.62693 10.5926C2.85271 10.5965 3.05601 10.6932 3.20017 10.8452C3.34483 10.9977 3.43133 11.203 3.42546 11.4302L3.42449 11.4429H3.42644L3.42302 11.4722C3.40738 11.6824 3.31355 11.8671 3.17232 12.0039C3.02033 12.1476 2.81508 12.2326 2.58734 12.2287L2.57513 12.2278L2.57464 12.2302L2.55607 12.2292L0.78795 12.1906ZM23.4382 10.8941L23.4651 10.8936C23.6786 10.8926 23.8727 10.9723 24.0198 11.1057C24.1752 11.246 24.2749 11.4478 24.2876 11.6721L24.2871 11.6804C24.2895 11.6804 24.2881 11.7034 24.2881 11.7073C24.2885 11.9209 24.2089 12.1149 24.0755 12.2625C23.9352 12.4174 23.7334 12.5171 23.5091 12.5298L21.7219 12.6197C21.4956 12.6304 21.287 12.5479 21.1335 12.4081C20.9781 12.2678 20.8764 12.066 20.8657 11.8417C20.8557 11.6252 20.9319 11.4136 21.0778 11.2533C21.218 11.0984 21.4199 10.9962 21.6442 10.986C22.2414 10.9537 22.841 10.9176 23.4382 10.8941ZM20.3091 3.58999C20.4464 3.40966 20.6404 3.30312 20.8466 3.27233C21.0534 3.24448 21.2698 3.29384 21.4526 3.42921L21.4546 3.43116C21.5406 3.4953 21.6129 3.5759 21.6675 3.66828C21.722 3.76065 21.7576 3.86295 21.7722 3.96922C21.8006 4.17545 21.7507 4.39194 21.6154 4.57472L20.5402 6.00612C20.4048 6.18645 20.2089 6.29494 20.0002 6.32524C19.794 6.35359 19.5775 6.30423 19.3942 6.16886C19.2139 6.03349 19.1054 5.83508 19.0751 5.62884C19.0468 5.42261 19.0961 5.20563 19.2315 5.02286L20.3091 3.58999ZM15.3268 20.6378L15.3141 20.9696L15.3155 21.085C15.3219 21.3024 15.3126 21.5219 15.2877 21.7379L15.1621 22.2104L8.97172 22.7871L8.87838 22.5359L8.69169 21.5409L8.70244 21.2565L15.3268 20.6378Z" fill="#0567FB"/>
</svg>
