<svg width="19" height="17" viewBox="0 0 19 17" fill="none" xmlns="http://www.w3.org/2000/svg">
<path fill-rule="evenodd" clip-rule="evenodd" d="M7.76064 0C4.87656 1.82821 2.27088 2.69321 0.0348094 2.48873C-0.355767 10.3878 2.56142 15.053 7.73086 17C8.28803 16.7966 8.81947 16.5601 9.32369 16.2895C9.15054 16.2228 8.99322 16.1207 8.86176 15.9897L8.85955 15.9872L8.85735 15.9897C8.74701 15.8794 8.65581 15.7496 8.58998 15.6061C8.31194 15.7349 8.02581 15.8533 7.73122 15.9607C3.19399 14.252 0.633546 10.1572 0.975944 3.22354C2.93876 3.40302 5.22594 2.64393 7.7577 1.03896C9.94817 2.74065 12.2089 3.23899 14.513 3.11836C14.5321 3.85244 14.5229 4.55158 14.4872 5.21798C14.7914 5.26248 15.0885 5.36509 15.3754 5.53316C15.4582 4.54679 15.4868 3.49312 15.4571 2.36883C12.8323 2.50638 10.2564 1.93854 7.76064 0ZM9.78892 15.1935C9.77113 15.1935 9.75351 15.1901 9.73707 15.1833C9.72063 15.1765 9.70569 15.1665 9.69311 15.154C9.68053 15.1414 9.67057 15.1264 9.66378 15.11C9.657 15.0936 9.65353 15.0759 9.65358 15.0582C9.65358 15.0195 9.6591 14.9817 9.66792 14.9438C9.88528 13.2233 10.6458 13.1924 11.6024 12.9434C11.8874 12.8692 12.4093 12.8294 12.7131 12.5635C12.8804 12.4164 12.9816 12.1174 12.9411 11.9015C12.7105 11.6871 12.5325 11.4554 12.4921 11.0137L12.4645 11.0141C12.4001 11.013 12.338 10.999 12.2806 10.9659C12.153 10.8927 12.0831 10.7548 12.0493 10.5956C12.0066 10.3951 12.0209 10.1568 12.0419 10.0068L12.0493 9.97698C12.0938 9.85304 12.1489 9.78574 12.2192 9.75669L12.221 9.75558C12.189 9.15868 12.2898 8.21314 11.6771 8.02704C12.8874 6.53094 14.2835 5.71668 15.3316 7.04803C16.4993 7.10945 17.0201 8.83063 16.2948 9.75669H16.2643C16.3338 9.78574 16.389 9.85304 16.4335 9.97698L16.4416 10.0068C16.4626 10.1568 16.4765 10.3951 16.4335 10.5956C16.3997 10.7548 16.3302 10.8927 16.2025 10.9659C16.1452 10.999 16.083 11.013 16.019 11.0141L15.9911 11.0137C15.951 11.4554 15.773 11.6871 15.5424 11.9015C15.5012 12.1174 15.6031 12.4164 15.77 12.5635C16.0742 12.8294 16.5957 12.8688 16.8814 12.9434C17.8377 13.1924 18.5982 13.2233 18.8156 14.9438C18.8244 14.9817 18.8299 15.0195 18.8299 15.0582C18.8299 15.1332 18.7692 15.1935 18.6946 15.1935H9.78892ZM7.67679 2.75242C5.72612 3.98851 3.96411 4.57327 2.45219 4.43536C2.18813 9.77654 4.1605 12.9309 7.6562 14.2476C7.67826 14.2395 7.69996 14.231 7.72203 14.2229V2.78699L7.67679 2.75242Z" fill="#0567FB"/>
</svg>
