<svg width="32" height="32" viewBox="0 0 32 32" fill="none" xmlns="http://www.w3.org/2000/svg">
<g clip-path="url(#clip0_1_8980)">
<path d="M28 -0.000976562H3.11111C1.39289 -0.000976562 0 1.39192 0 3.11013V27.999C0 29.7172 1.39289 31.1101 3.11111 31.1101H28C29.7182 31.1101 31.1111 29.7172 31.1111 27.999V3.11013C31.1111 1.39192 29.7182 -0.000976562 28 -0.000976562Z" fill="#0567FB"/>
<path d="M13.2222 13.4157C13.2222 11.8049 12.2646 10.499 11.0833 10.499C9.90207 10.499 8.94446 11.8049 8.94446 13.4157V25.0824C8.94446 26.6932 9.90207 27.999 11.0833 27.999C12.2646 27.999 13.2222 26.6932 13.2222 25.0824V13.4157Z" fill="white"/>
<path d="M21.7778 5.63786C21.7778 4.02703 20.8202 2.72119 19.6389 2.72119C18.4576 2.72119 17.5 4.02703 17.5 5.63786V17.3045C17.5 18.9154 18.4576 20.2212 19.6389 20.2212C20.8202 20.2212 21.7778 18.9154 21.7778 17.3045V5.63786Z" fill="white"/>
</g>
<defs>
<clipPath id="clip0_1_8980">
<rect width="31.1111" height="31.1111" fill="white"/>
</clipPath>
</defs>
</svg>
