<svg width="88" height="69" viewBox="0 0 88 69" fill="none" xmlns="http://www.w3.org/2000/svg">
<g clip-path="url(#clip0_184_3082)">
<path d="M16.4897 68.0815V63.6021C16.4897 61.8846 15.4442 60.765 13.6522 60.765C12.7564 60.765 11.7858 61.0636 11.1137 62.0342C10.5913 61.2129 9.84482 60.765 8.72488 60.765C7.97802 60.765 7.23184 60.9887 6.63428 61.8101V60.9143H5.06643V68.0815H6.63428V64.1245C6.63428 62.8555 7.30632 62.258 8.35179 62.258C9.39657 62.258 9.91965 62.93 9.91965 64.1245V68.0815H11.4875V64.1245C11.4875 62.8555 12.2337 62.258 13.2043 62.258C14.2498 62.258 14.7722 62.93 14.7722 64.1245V68.0815H16.4897ZM39.7086 60.9143H37.1705V58.7492H35.6026V60.9143H34.184V62.3325H35.6023V65.6178C35.6023 67.2605 36.2743 68.2308 38.0663 68.2308C38.7383 68.2308 39.4845 68.007 40.0076 67.7084L39.5593 66.3644C39.1114 66.663 38.589 66.7378 38.2156 66.7378C37.4691 66.7378 37.1705 66.2899 37.1705 65.543V62.3325H39.7086V60.9143ZM52.9983 60.7646C52.1025 60.7646 51.5053 61.2129 51.1319 61.8101V60.9143H49.564V68.0815H51.1319V64.05C51.1319 62.8555 51.6543 62.1835 52.6249 62.1835C52.9235 62.1835 53.297 62.2583 53.5956 62.3328L54.0435 60.8398C53.7449 60.765 53.297 60.765 52.9983 60.765V60.7646ZM32.9148 61.5115C32.1679 60.9887 31.1228 60.765 30.0029 60.765C28.2112 60.765 27.0168 61.6608 27.0168 63.0793C27.0168 64.2741 27.9126 64.9458 29.4805 65.1699L30.227 65.2447C31.0483 65.3937 31.4962 65.6178 31.4962 65.9913C31.4962 66.5137 30.899 66.8871 29.8536 66.8871C28.8084 66.8871 27.9871 66.5137 27.4644 66.1406L26.7178 67.335C27.5392 67.9322 28.6591 68.2308 29.7787 68.2308C31.8693 68.2308 33.0641 67.2605 33.0641 65.9164C33.0641 64.6472 32.0935 63.9752 30.6001 63.7514L29.8536 63.6765C29.1815 63.6017 28.6591 63.4528 28.6591 63.0048C28.6591 62.4821 29.1815 62.1835 30.0029 62.1835C30.899 62.1835 31.7948 62.5566 32.2428 62.7807L32.9148 61.5115ZM74.5753 60.765C73.6791 60.765 73.0819 61.2129 72.7085 61.8101V60.9143H71.1406V68.0815H72.7085V64.05C72.7085 62.8555 73.2312 62.1835 74.2015 62.1835C74.5005 62.1835 74.8739 62.2583 75.1725 62.3328L75.6204 60.8398C75.3218 60.765 74.8739 60.765 74.5753 60.765ZM54.5662 64.4979C54.5662 66.663 56.0592 68.2308 58.374 68.2308C59.4191 68.2308 60.1656 68.007 60.9121 67.4098L60.1656 66.1406C59.5684 66.5885 58.9712 66.8123 58.2991 66.8123C57.0299 66.8123 56.1341 65.9164 56.1341 64.4979C56.1341 63.1542 57.0299 62.258 58.2991 62.1835C58.9712 62.1835 59.5684 62.4073 60.1656 62.8555L60.9121 61.5863C60.1656 60.9887 59.4191 60.765 58.374 60.765C56.0592 60.765 54.5662 62.3328 54.5662 64.4979ZM69.0504 64.4979V60.9143H67.4825V61.8101C66.9598 61.1384 66.2133 60.765 65.2426 60.765C63.2268 60.765 61.659 62.3328 61.659 64.4979C61.659 66.663 63.2268 68.2308 65.2426 68.2308C66.2877 68.2308 67.0346 67.8577 67.4825 67.1857V68.0815H69.0504V64.4979ZM63.3013 64.4979C63.3013 63.2286 64.1227 62.1835 65.4664 62.1835C66.7356 62.1835 67.6318 63.1542 67.6318 64.4979C67.6318 65.7671 66.7356 66.8123 65.4664 66.8123C64.1227 66.7374 63.3013 65.7671 63.3013 64.4979ZM44.5618 60.765C42.4712 60.765 40.9779 62.258 40.9779 64.4979C40.9779 66.7378 42.4709 68.2308 44.6363 68.2308C45.6814 68.2308 46.7269 67.9322 47.5483 67.2605L46.8014 66.1406C46.2042 66.5885 45.4577 66.8871 44.7111 66.8871C43.7405 66.8871 42.7699 66.4392 42.5457 65.1696H47.8469V64.5727C47.9217 62.258 46.5779 60.765 44.5618 60.765ZM44.5618 62.1087C45.5321 62.1087 46.2045 62.7062 46.3535 63.8262H42.6206C42.7699 62.8555 43.4419 62.1087 44.5618 62.1087ZM83.4597 64.4979V58.0771H81.8918V61.8101C81.3691 61.1384 80.6226 60.765 79.6519 60.765C77.6362 60.765 76.0683 62.3328 76.0683 64.4979C76.0683 66.663 77.6362 68.2308 79.6519 68.2308C80.6974 68.2308 81.4439 67.8577 81.8918 67.1857V68.0815H83.4597V64.4979ZM77.711 64.4979C77.711 63.2286 78.532 62.1835 79.8761 62.1835C81.1453 62.1835 82.0411 63.1542 82.0411 64.4979C82.0411 65.7671 81.1453 66.8123 79.8761 66.8123C78.532 66.7374 77.711 65.7671 77.711 64.4979ZM25.2993 64.4979V60.9143H23.7314V61.8101C23.2087 61.1384 22.4622 60.765 21.4915 60.765C19.4758 60.765 17.9079 62.3328 17.9079 64.4979C17.9079 66.663 19.4758 68.2308 21.4915 68.2308C22.537 68.2308 23.2835 67.8577 23.7314 67.1857V68.0815H25.2993V64.4979ZM19.4758 64.4979C19.4758 63.2286 20.2971 62.1835 21.6408 62.1835C22.9101 62.1835 23.8062 63.1542 23.8062 64.4979C23.8062 65.7671 22.9101 66.8123 21.6408 66.8123C20.2971 66.7374 19.4758 65.7671 19.4758 64.4979Z" fill="#A1A1A1"/>
<path d="M32.392 6.48633H55.9099V48.744H32.392V6.48633Z" fill="#1E1E1E"/>
<path d="M33.8854 27.6155C33.8854 19.0297 37.9169 11.4142 44.1135 6.48649C39.5596 2.90287 33.8109 0.737793 27.5395 0.737793C12.6815 0.737793 0.661407 12.7579 0.661407 27.6155C0.661407 42.4728 12.6815 54.4932 27.5391 54.4932C33.8106 54.4932 39.5593 52.3282 44.1135 48.7442C37.9169 43.8913 33.8854 36.2013 33.8854 27.6155Z" fill="#4D4D4D"/>
<path d="M87.6405 27.6155C87.6405 42.4728 75.6204 54.4932 60.7628 54.4932C54.4914 54.4932 48.7427 52.3282 44.1884 48.7442C50.4598 43.8168 54.4169 36.2013 54.4169 27.6155C54.4169 19.0297 50.385 11.4142 44.1884 6.48649C48.7423 2.90287 54.4914 0.737793 60.7628 0.737793C75.6204 0.737793 87.6405 12.8328 87.6405 27.6155Z" fill="#A1A1A1"/>
</g>
<defs>
<clipPath id="clip0_184_3082">
<rect width="87.0655" height="67.6798" fill="white" transform="translate(0.661407 0.737793)"/>
</clipPath>
</defs>
</svg>
