<svg width="288" height="126" viewBox="0 0 288 126" fill="none" xmlns="http://www.w3.org/2000/svg">
<path d="M287.09 63.4322L274.591 63.0717L281.153 52.427L287.09 63.4322ZM129.173 93.1034L130.236 93.3121L129.173 93.1034ZM281.099 61.0885C279.895 60.3881 278.664 59.6874 277.406 58.9885L278.459 57.0955C279.728 57.8012 280.972 58.5088 282.188 59.2163L281.099 61.0885ZM273.7 56.9732C272.47 56.3193 271.219 55.6687 269.949 55.0231L270.931 53.0923C272.213 53.7441 273.475 54.4008 274.717 55.0608L273.7 56.9732ZM266.153 53.137C264.891 52.524 263.612 51.9171 262.317 51.3178L263.227 49.3523C264.534 49.9572 265.825 50.5698 267.099 51.1886L266.153 53.137ZM258.471 49.5798C257.187 49.014 255.89 48.4568 254.582 47.9095L255.417 45.9114C256.739 46.464 258.048 47.0266 259.344 47.5979L258.471 49.5798ZM250.656 46.3118C249.35 45.795 248.034 45.289 246.709 44.7952L247.465 42.7657C248.804 43.2646 250.133 43.7758 251.453 44.2979L250.656 46.3118ZM242.73 43.3589C241.4 42.8945 240.063 42.4433 238.72 42.0067L239.39 39.9469C240.748 40.3885 242.1 40.8447 243.444 41.3141L242.73 43.3589ZM234.685 40.7449C233.335 40.3395 231.98 39.9499 230.621 39.5772L231.194 37.4885C232.57 37.8658 233.941 38.2602 235.308 38.6704L234.685 40.7449ZM226.533 38.5104C225.164 38.1717 223.793 37.8515 222.421 37.5509L222.884 35.4352C224.276 35.7401 225.666 36.0647 227.053 36.4078L226.533 38.5104ZM218.281 36.7049C216.894 36.4424 215.508 36.2011 214.124 35.9825L214.462 33.8432C215.869 34.0653 217.276 34.3103 218.684 34.5768L218.281 36.7049ZM209.954 35.3929C208.551 35.2182 207.152 35.0682 205.756 34.9442L205.948 32.7868C207.37 32.9131 208.794 33.0659 210.222 33.2436L209.954 35.3929ZM201.554 34.6501C200.148 34.5788 198.748 34.5358 197.355 34.5225L197.375 32.3567C198.799 32.3703 200.229 32.4143 201.664 32.487L201.554 34.6501ZM193.148 34.5744C191.739 34.6236 190.34 34.7053 188.951 34.821L188.772 32.6626C190.196 32.5439 191.63 32.4602 193.073 32.4099L193.148 34.5744ZM184.783 35.2764C183.393 35.4655 182.016 35.6913 180.654 35.9554L180.242 33.8291C181.645 33.557 183.062 33.3247 184.491 33.1303L184.783 35.2764ZM176.565 36.8757C175.21 37.2247 173.872 37.615 172.551 38.048L171.876 35.99C173.243 35.5419 174.626 35.1387 176.025 34.7783L176.565 36.8757ZM168.631 39.4831C167.342 40.0066 166.072 40.5751 164.823 41.1902L163.866 39.2473C165.162 38.6087 166.48 38.0189 167.817 37.4763L168.631 39.4831ZM161.155 43.1707C159.964 43.8722 158.796 44.621 157.652 45.4188L156.413 43.642C157.603 42.8124 158.818 42.0338 160.055 41.3047L161.155 43.1707ZM154.328 47.9302C153.26 48.8041 152.215 49.7264 151.195 50.6987L149.7 49.1311C150.76 48.1209 151.846 47.1622 152.957 46.2535L154.328 47.9302ZM148.294 53.6775C147.376 54.6916 146.481 55.7522 145.612 56.8605L143.908 55.524C144.808 54.3759 145.735 53.2764 146.688 52.2241L148.294 53.6775ZM143.138 60.2473C142.368 61.378 141.621 62.5523 140.899 63.7714L139.035 62.6673C139.781 61.4099 140.551 60.1973 141.347 59.0285L143.138 60.2473ZM138.88 67.4195C138.244 68.6505 137.631 69.9224 137.041 71.236L135.065 70.3488C135.671 68.9999 136.301 67.6925 136.956 66.4256L138.88 67.4195ZM135.436 75.0624C134.933 76.3477 134.451 77.6694 133.991 79.0283L131.939 78.3329C132.411 76.9433 132.904 75.5904 133.419 74.2734L135.436 75.0624ZM132.73 83.0251C132.342 84.3471 131.974 85.7015 131.625 87.0888L129.524 86.5605C129.88 85.1468 130.256 83.7655 130.651 82.4161L132.73 83.0251ZM130.671 91.1912C130.521 91.8903 130.376 92.5973 130.236 93.3121L128.111 92.8947C128.253 92.1679 128.401 91.4489 128.553 90.7375L130.671 91.1912ZM130.236 93.3121C130.084 94.0835 129.941 94.8386 129.805 95.5776L127.675 95.1861C127.812 94.4383 127.957 93.6745 128.111 92.8947L130.236 93.3121ZM129.082 99.8188C128.86 101.24 128.671 102.591 128.513 103.873L126.363 103.608C126.524 102.301 126.717 100.927 126.942 99.4845L129.082 99.8188ZM128.075 108.197C127.959 109.702 127.895 111.086 127.879 112.354L125.714 112.327C125.73 111.007 125.796 109.576 125.915 108.031L128.075 108.197ZM128.011 116.345C128.155 117.969 128.407 119.281 128.737 120.314L126.675 120.974C126.283 119.749 126.007 118.271 125.854 116.536L128.011 116.345ZM130.634 123.148C131.319 123.496 132.275 123.465 133.594 122.714L134.667 124.596C133.015 125.537 131.245 125.887 129.654 125.08L130.634 123.148ZM136.626 120.186C137.469 119.285 138.336 118.207 139.208 116.966L140.98 118.211C140.061 119.52 139.131 120.679 138.208 121.666L136.626 120.186ZM141.443 113.439C142.112 112.276 142.772 111.028 143.415 109.704L145.364 110.65C144.7 112.017 144.016 113.31 143.321 114.519L141.443 113.439ZM145.163 105.809C145.679 104.561 146.178 103.263 146.653 101.922L148.695 102.645C148.207 104.021 147.695 105.354 147.164 106.637L145.163 105.809ZM147.966 97.8976C148.364 96.5644 148.738 95.1974 149.083 93.8008L151.186 94.32C150.832 95.7508 150.449 97.1516 150.041 98.518L147.966 97.8976ZM149.992 89.7002C150.263 88.3258 150.504 86.9289 150.712 85.5133L152.855 85.8281C152.642 87.2791 152.395 88.7106 152.117 90.1188L149.992 89.7002ZM151.221 81.339C151.356 79.9458 151.458 78.5388 151.522 77.1215L153.686 77.2197C153.619 78.675 153.516 80.1188 153.377 81.548L151.221 81.339ZM151.602 72.9058C151.591 71.5078 151.542 70.1032 151.453 68.6951L153.614 68.5578C153.706 70.0071 153.757 71.4519 153.768 72.8889L151.602 72.9058ZM151.064 64.4957C150.894 63.1112 150.683 61.7264 150.427 60.3442L152.557 59.95C152.821 61.3769 153.039 62.8053 153.213 64.2323L151.064 64.4957ZM149.528 56.2248C149.188 54.878 148.802 53.5364 148.369 52.2027L150.429 51.534C150.878 52.9145 151.276 54.3023 151.628 55.6946L149.528 56.2248ZM146.928 48.2367C146.412 46.9566 145.848 45.6865 145.234 44.4288L147.181 43.4788C147.817 44.7831 148.402 46.0999 148.937 47.4264L146.928 48.2367ZM143.244 40.7012C142.555 39.5163 141.817 38.3451 141.028 37.1897L142.817 35.9689C143.635 37.1675 144.401 38.3827 145.116 39.6121L143.244 40.7012ZM138.509 33.774C137.663 32.7099 136.769 31.662 135.826 30.6321L137.423 29.1693C138.401 30.2363 139.327 31.3225 140.204 32.4259L138.509 33.774ZM132.846 27.5982C131.863 26.6641 130.834 25.7475 129.758 24.8501L131.145 23.1867C132.257 24.1138 133.32 25.0615 134.338 26.028L132.846 27.5982ZM126.419 22.2409C125.314 21.4314 124.165 20.6404 122.971 19.8692L124.147 18.05C125.375 18.8438 126.559 19.6587 127.699 20.4935L126.419 22.2409ZM119.393 17.6954C118.168 16.9959 116.9 16.3158 115.59 15.6562L116.563 13.7215C117.907 14.3978 119.208 15.0959 120.467 15.8145L119.393 17.6954ZM111.886 13.9001C110.615 13.3325 109.306 12.783 107.959 12.2526L108.753 10.2374C110.129 10.7794 111.468 11.3413 112.769 11.9223L111.886 13.9001ZM103.952 10.7705C102.675 10.3279 101.368 9.90148 100.028 9.49183L100.661 7.4206C102.026 7.83791 103.359 8.27264 104.661 8.72415L103.952 10.7705ZM95.9118 8.31397C94.549 7.94972 93.1553 7.60195 91.7303 7.27128L92.2199 5.16145C93.6677 5.49742 95.0846 5.85097 96.4711 6.22152L95.9118 8.31397ZM87.714 6.40185C86.3483 6.12686 84.9557 5.86687 83.5356 5.62236L83.9032 3.48788C85.3429 3.73578 86.7555 3.9995 88.1415 4.27858L87.714 6.40185ZM79.1926 4.93576C77.8534 4.74237 76.4912 4.56213 75.1057 4.39542L75.3644 2.24504C76.7666 2.41376 78.1457 2.59623 79.5022 2.79211L79.1926 4.93576ZM70.9549 3.94362C69.5486 3.8063 68.1195 3.68237 66.6673 3.57219L66.8312 1.41251C68.2986 1.52385 69.7432 1.64912 71.1654 1.78798L70.9549 3.94362ZM62.2457 3.28346C60.9091 3.20999 59.5538 3.14772 58.1797 3.09689L58.2597 0.932481C59.6466 0.98378 61.0148 1.04664 62.3646 1.12085L62.2457 3.28346ZM54.0006 2.979C52.5886 2.95132 51.1575 2.93532 49.7072 2.93127L49.7132 0.765387C51.1755 0.769479 52.6187 0.785604 54.0431 0.813531L54.0006 2.979ZM45.298 2.95514C43.92 2.9737 42.5254 3.00269 41.1139 3.0423L41.0531 0.87726C42.475 0.837362 43.8802 0.808154 45.2688 0.789454L45.298 2.95514ZM36.9774 3.18692C35.5827 3.24514 34.1722 3.31344 32.7456 3.39198L32.6265 1.22937C34.0625 1.1503 35.4827 1.08155 36.887 1.02291L36.9774 3.18692ZM28.4176 3.65855C26.9588 3.75777 25.4838 3.86741 23.9924 3.98763L23.8183 1.82875C25.3186 1.7078 26.8026 1.59749 28.2706 1.49765L28.4176 3.65855ZM19.8867 4.34171C18.5235 4.46684 17.147 4.60058 15.7572 4.7431L15.5363 2.58851C16.9337 2.44522 18.3178 2.31073 19.6888 2.1849L19.8867 4.34171ZM11.5477 5.19701C10.131 5.35715 8.70092 5.52617 7.25724 5.7042L6.99217 3.55459C8.44301 3.37568 9.88038 3.2058 11.3044 3.04483L11.5477 5.19701ZM2.88538 6.2654C2.14997 6.36348 1.41115 6.46383 0.668855 6.56647L0.372182 4.42101C1.11788 4.31788 1.8602 4.21706 2.5991 4.11852L2.88538 6.2654Z" fill="#0567FB"/>
</svg>
