<svg width="38" height="39" viewBox="0 0 38 39" fill="none" xmlns="http://www.w3.org/2000/svg">
<path d="M30.4026 12.9371V21.0491C30.4026 25.9005 27.6304 27.9796 23.472 27.9796H9.62656C8.91775 27.9796 8.24045 27.9167 7.61039 27.7749C7.21661 27.7119 6.83859 27.6017 6.49206 27.4757C4.12936 26.5936 2.69598 24.5459 2.69598 21.0491V12.9371C2.69598 8.08571 5.46821 6.00659 9.62656 6.00659H23.472C27.0003 6.00659 29.5363 7.50296 30.2136 10.921C30.3238 11.5511 30.4026 12.1968 30.4026 12.9371Z" stroke="#FF9B00" stroke-width="2.3627" stroke-miterlimit="10" stroke-linecap="round" stroke-linejoin="round"/>
<path opacity="0.4" d="M35.1279 17.6627V25.7746C35.1279 30.6261 32.3557 32.7052 28.1974 32.7052H14.3519C13.1863 32.7052 12.131 32.5477 11.2174 32.2012C9.34301 31.5082 8.06714 30.0748 7.61035 27.7751C8.2404 27.9169 8.91771 27.9798 9.62652 27.9798H23.472C27.6303 27.9798 30.4025 25.9006 30.4025 21.0492V12.9373C30.4025 12.197 30.3395 11.5354 30.2135 10.9211C33.2063 11.5512 35.1279 13.6618 35.1279 17.6627Z" stroke="#FF9B00" stroke-width="2.3627" stroke-miterlimit="10" stroke-linecap="round" stroke-linejoin="round"/>
<path d="M16.5412 21.1595C18.8378 21.1595 20.6996 19.2977 20.6996 17.0011C20.6996 14.7046 18.8378 12.8428 16.5412 12.8428C14.2446 12.8428 12.3828 14.7046 12.3828 17.0011C12.3828 19.2977 14.2446 21.1595 16.5412 21.1595Z" stroke="#FF9B00" stroke-width="2.3627" stroke-miterlimit="10" stroke-linecap="round" stroke-linejoin="round"/>
<path opacity="0.4" d="M7.53143 13.5356V20.4663" stroke="#FF9B00" stroke-width="2.3627" stroke-miterlimit="10" stroke-linecap="round" stroke-linejoin="round"/>
<path opacity="0.4" d="M25.5512 13.5356V20.4663" stroke="#FF9B00" stroke-width="2.3627" stroke-miterlimit="10" stroke-linecap="round" stroke-linejoin="round"/>
</svg>
