<svg width="72" height="72" viewBox="0 0 72 72" fill="none" xmlns="http://www.w3.org/2000/svg">
<path opacity="0.4" d="M56.3838 50.3447C55.3683 52.1938 53.6129 53.4554 51.5062 53.8403C48.5531 54.3679 45.5561 54.6494 42.5634 54.7185C42.269 54.7288 41.9745 54.7391 41.6839 54.7233C41.2031 54.733 40.7262 54.7166 40.2492 54.7003C39.6642 54.6948 39.0568 54.6594 38.4495 54.624C36.7878 54.5145 35.1597 54.3568 33.517 54.117C31.8483 53.8734 30.1909 53.5515 28.571 53.1553C27.8746 53.0004 27.2081 52.8232 26.5454 52.6199C26.1619 52.5107 25.7784 52.4014 25.421 52.296C25.1418 52.202 24.8587 52.134 24.5795 52.04C21.7538 51.1482 18.9883 50.0255 16.3354 48.6795C14.3522 47.671 12.9786 45.9525 12.5524 43.9463C12.1225 41.9662 12.7029 39.814 14.0982 38.1003L17.7602 33.6284C18.5421 32.6507 19.4164 30.6745 19.5991 29.4229L20.3071 24.5731C21.6888 15.108 30.5037 8.53882 39.9687 9.92052C49.4077 11.2984 55.9769 20.1133 54.5952 29.5784L53.8872 34.4282C53.7045 35.6798 53.9775 37.8234 54.4733 38.9877L56.7041 44.3198C57.5067 46.3011 57.4032 48.4696 56.3838 50.3447Z" fill="#0567FB"/>
<path d="M36.6013 32.624C35.5062 32.4641 34.749 31.4481 34.9089 30.353L36.0889 22.2699C36.2487 21.1747 37.2647 20.4176 38.3598 20.5775C39.4549 20.7374 40.2121 21.7533 40.0522 22.8484L38.8722 30.9316C38.6863 32.0229 37.6704 32.78 36.6013 32.624Z" fill="#0567FB"/>
<path d="M40.4596 57.82C38.9229 60.6848 35.7127 62.4265 32.323 61.9317C30.2631 61.631 28.3511 60.4997 27.134 58.8041C26.4138 57.9001 25.9402 56.7657 25.7312 55.6434C26.0626 55.745 26.3978 55.8206 26.7552 55.926C27.3435 56.0918 27.9579 56.2613 28.576 56.4048C30.0433 56.7522 31.5442 57.0512 33.0565 57.2719C34.5427 57.4889 36.0404 57.6276 37.5196 57.7104C38.0748 57.7382 38.6262 57.792 39.1591 57.79C39.5839 57.7987 40.0087 57.8075 40.4596 57.82Z" fill="#0567FB"/>
</svg>
