<svg width="172" height="116" viewBox="0 0 172 116" fill="none" xmlns="http://www.w3.org/2000/svg">
<path d="M-78.5569 1.57531C-87.3539 12.3882 -98.8814 27.2039 -105.631 39.2168M-105.631 39.2168C-106.409 40.6006 -94.7623 43.1159 -94.2156 43.1865C-82.2253 44.7461 -70.3995 44.6882 -58.3482 44.3704M-105.631 39.2168C-46.0979 -7.60921 30.4834 -7.50675 69.3884 29.9725C73.2444 33.6871 77.4374 37.7342 81.2523 42.1369M81.2523 42.1369C87.3278 49.1484 92.4445 57.062 93.7146 65.9714C94.8864 74.1939 92.9509 85.3979 86.0653 90.6922C73.2023 100.581 55.1061 88.9231 54.9868 73.2788C54.8816 59.5313 67.7707 43.8881 81.2523 42.1369ZM81.2523 42.1369C81.5367 42.1 81.8213 42.0692 82.1061 42.0448C150.844 36.1494 182.208 111 165.821 165.042" stroke="white" stroke-width="3" stroke-miterlimit="1.5" stroke-linecap="round" stroke-linejoin="round" stroke-dasharray="6 6"/>
</svg>
