<svg width="176" height="185" viewBox="0 0 176 185" fill="none" xmlns="http://www.w3.org/2000/svg">
<path d="M145.679 168.185C130.208 179.056 111.776 184.924 92.8675 184.999C73.9586 185.074 55.481 179.353 39.9235 168.605C24.366 157.857 12.4761 142.6 5.85539 124.888C-0.765346 107.176 -1.79883 87.86 2.89413 69.5427C7.5871 51.2253 17.7811 34.7862 32.1029 22.4398C46.4247 10.0933 64.1863 2.43261 82.9952 0.489627C101.804 -1.45336 120.757 2.4147 137.3 11.5728C153.843 20.7308 167.182 34.7389 175.521 51.7101L152.864 62.8418C146.801 50.5021 137.102 40.3168 125.074 33.658C113.045 26.9992 99.265 24.1868 85.5891 25.5995C71.9132 27.0123 58.9988 32.5823 48.5854 41.5594C38.1721 50.5365 30.7601 62.4893 27.3478 75.8078C23.9356 89.1263 24.687 103.171 29.5009 116.049C34.3149 128.927 42.96 140.021 54.2718 147.836C65.5836 155.65 79.0186 159.811 92.7672 159.756C106.516 159.701 119.917 155.435 131.167 147.53L145.679 168.185Z" fill="white" fill-opacity="0.15"/>
</svg>
