<svg width="82" height="298" viewBox="0 0 82 298" fill="none" xmlns="http://www.w3.org/2000/svg">
<path d="M81 245.618C72.2654 261.436 60.0423 282.478 48.8723 296.416M48.8723 296.416C47.5859 298.022 38.9155 285.24 38.5656 284.617C30.8775 270.958 25.2139 256.713 19.7534 242.07M48.8723 296.416C76.3053 202.142 39.0547 110.124 -24.8653 81.5219C-31.2006 78.687 -38.0988 75.6082 -45.2415 73.1563M-45.2415 73.1563C-56.6163 69.2515 -68.6108 66.9366 -79.9377 69.7291C-90.3911 72.3066 -102.922 80.0654 -105.949 90.9101C-111.602 111.169 -88.8129 127.272 -69.9472 119.831C-53.3685 113.293 -40.8108 90.2132 -45.2415 73.1563ZM-45.2415 73.1563C-45.3349 72.7965 -45.4359 72.4394 -45.5446 72.0852C-71.782 -13.4112 -176.975 -14.8289 -234 31.0718" stroke="#0567FB" stroke-width="2" stroke-miterlimit="1.5" stroke-linecap="round" stroke-linejoin="round" stroke-dasharray="7.78 7.78"/>
</svg>
