<svg width="20" height="20" viewBox="0 0 20 20" fill="none" xmlns="http://www.w3.org/2000/svg">
<path fill-rule="evenodd" clip-rule="evenodd" d="M2 0H18C19.1046 0 20 0.89543 20 2V18C20 19.1046 19.1046 20 18 20H2C0.89543 20 0 19.1046 0 18V2C0 0.89543 0.89543 0 2 0Z" fill="#F5F9FC"/>
<path d="M12.6833 6.395C12.2846 5.93978 12.0648 5.35517 12.065 4.75H10.2625V11.9833C10.2486 12.3748 10.0833 12.7455 9.80153 13.0175C9.51972 13.2896 9.14334 13.4416 8.75167 13.4417C7.92333 13.4417 7.235 12.765 7.235 11.925C7.235 10.9217 8.20333 10.1692 9.20083 10.4783V8.635C7.18833 8.36667 5.42667 9.93 5.42667 11.925C5.42667 13.8675 7.03667 15.25 8.74583 15.25C10.5775 15.25 12.065 13.7625 12.065 11.925V8.25583C12.7959 8.78075 13.6735 9.06238 14.5733 9.06083V7.25833C14.5733 7.25833 13.4767 7.31083 12.6833 6.395Z" fill="black"/>
</svg>
