<svg width="92" height="300" viewBox="0 0 92 300" fill="none" xmlns="http://www.w3.org/2000/svg">
<path d="M90 246.618C81.2654 262.436 69.0423 283.478 57.8723 297.416M57.8723 297.416C56.5859 299.022 47.9155 286.24 47.5656 285.617C39.8775 271.958 34.2139 257.713 28.7534 243.07M57.8723 297.416C85.3053 203.142 48.0547 111.124 -15.8653 82.5219C-22.2006 79.687 -29.0988 76.6082 -36.2415 74.1563M-36.2415 74.1563C-47.6163 70.2515 -59.6108 67.9366 -70.9377 70.7291C-81.3911 73.3066 -93.9225 81.0654 -96.9491 91.9101C-102.602 112.169 -79.8129 128.272 -60.9472 120.831C-44.3685 114.293 -31.8108 91.2132 -36.2415 74.1563ZM-36.2415 74.1563C-36.3349 73.7965 -36.4359 73.4394 -36.5446 73.0852C-62.782 -12.4112 -167.975 -13.8289 -225 32.0718" stroke="#F3F3F3" stroke-width="3.88889" stroke-miterlimit="1.5" stroke-linecap="round" stroke-linejoin="round"/>
</svg>
