<svg width="99" height="63" viewBox="0 0 99 63" fill="none" xmlns="http://www.w3.org/2000/svg">
<g clip-path="url(#clip0_184_3087)">
<path d="M19.889 0.910645H44.3371C47.7499 0.910645 49.8725 3.69249 49.0767 7.1168L37.694 55.9859C36.8909 59.3984 33.4735 62.1825 30.0588 62.1825H5.6125C2.20468 62.1825 0.0771831 59.3984 0.873365 55.9859L12.2606 7.1168C13.0568 3.69249 16.4719 0.910645 19.889 0.910645Z" fill="#4D4D4D"/>
<path d="M42.3026 0.910645H70.4178C73.8298 0.910645 72.2915 3.69249 71.4888 7.1168L60.1077 55.9859C59.3096 59.3984 59.5583 62.1825 56.139 62.1825H28.0243C24.6049 62.1825 22.4889 59.3984 23.292 55.9859L34.672 7.1168C35.4801 3.69249 38.8883 0.910645 42.3026 0.910645Z" fill="#A1A1A1"/>
<path d="M69.3026 0.910645H93.7508C97.1686 0.910645 99.2911 3.69249 98.4888 7.1168L87.1076 55.9859C86.3046 59.3984 82.8852 62.1825 79.4678 62.1825H55.0311C51.6118 62.1825 49.4908 59.3984 50.292 55.9859L61.6743 7.1168C62.4705 3.69249 65.8833 0.910645 69.3026 0.910645Z" fill="#666666"/>
<path d="M26.2736 16.5711C23.7597 16.5968 23.0172 16.5711 22.7799 16.5151C22.6887 16.9483 20.992 24.7744 20.9874 24.7809C20.6221 26.3641 20.3565 27.493 19.4533 28.2217C18.9412 28.6453 18.3428 28.85 17.649 28.85C16.5343 28.85 15.8845 28.2961 15.7756 27.2462L15.7546 26.8858C15.7546 26.8858 16.0942 24.7648 16.0942 24.753C16.0942 24.753 17.8748 17.6211 18.1937 16.6784C18.2106 16.6248 18.2152 16.5968 18.2194 16.5711C14.7537 16.6018 14.1392 16.5711 14.097 16.5151C14.0736 16.5918 13.9878 17.0342 13.9878 17.0342L12.1696 25.0727L12.0136 25.7542L11.7115 27.9841C11.7115 28.6453 11.8415 29.1854 12.0999 29.642C12.9282 31.0894 15.2911 31.3064 16.6278 31.3064C18.3497 31.3064 19.9655 30.9403 21.0572 30.2722C22.952 29.1529 23.448 27.4026 23.89 25.847L24.0951 25.0493C24.0951 25.0493 25.9293 17.6421 26.241 16.6784C26.2525 16.6248 26.2575 16.5968 26.2736 16.5711ZM32.5142 22.5465C32.0722 22.5465 31.2646 22.6538 30.5385 23.0096C30.2752 23.1449 30.026 23.3009 29.7631 23.4565L30.0003 22.6002L29.8704 22.456C28.3313 22.7677 27.9867 22.8095 26.5649 23.0096L26.4461 23.0889C26.2809 24.4574 26.134 25.4867 25.5222 28.1773C25.2878 29.1725 25.0486 30.1666 24.8047 31.1596L24.8698 31.2849C26.3272 31.2083 26.7692 31.2083 28.0358 31.229L28.1381 31.1178C28.2991 30.2936 28.3198 30.1004 28.6763 28.431C28.8438 27.6398 29.193 25.901 29.3652 25.282C29.6814 25.1351 29.9938 24.991 30.2917 24.991C31.0016 24.991 30.915 25.6101 30.8878 25.857C30.8571 26.271 30.5987 27.6237 30.3335 28.7852L30.1564 29.5347C30.0333 30.0886 29.898 30.6264 29.7746 31.1753L29.8282 31.2849C31.2642 31.2083 31.7023 31.2083 32.9286 31.229L33.0727 31.1178C33.2947 29.8306 33.3595 29.486 33.7528 27.6119L33.9506 26.7509C34.3351 25.0654 34.5283 24.2109 34.2373 23.5148C33.9299 22.7347 33.1916 22.5465 32.5142 22.5465ZM39.4863 24.311C38.7227 24.4578 38.2359 24.5552 37.7521 24.6184C37.2725 24.6951 36.8045 24.7652 36.067 24.8676L36.0083 24.9205L35.9546 24.9626C35.878 25.5123 35.8243 25.9873 35.7223 26.5458C35.6361 27.1231 35.5031 27.7794 35.2869 28.722C35.1194 29.4434 35.0331 29.6949 34.9377 29.9486C34.8445 30.2028 34.7422 30.4497 34.5539 31.1592L34.598 31.2248L34.6348 31.2849C35.3244 31.2524 35.7756 31.229 36.2391 31.2248C36.7021 31.2083 37.1821 31.2248 37.9242 31.2286L37.9894 31.1761L38.0591 31.1174C38.1665 30.4773 38.1822 30.3051 38.2477 29.9931C38.3129 29.6581 38.4248 29.1946 38.6997 27.9561C38.8296 27.3746 38.9741 26.7946 39.1091 26.2012C39.249 25.6101 39.3954 25.0282 39.535 24.4463L39.5143 24.3761L39.4863 24.311ZM39.5024 21.932C38.8086 21.5226 37.5915 21.6526 36.7719 22.218C35.955 22.7723 35.8619 23.5589 36.5534 23.9736C37.235 24.3715 38.457 24.2531 39.2693 23.6827C40.0847 23.1165 40.1866 22.3372 39.5024 21.932ZM43.6972 31.4134C45.1006 31.4134 46.5392 31.0262 47.6221 29.8789C48.4551 28.9482 48.8373 27.5632 48.9695 26.9928C49.4 25.1026 49.0646 24.2201 48.6437 23.6827C48.0035 22.8631 46.8723 22.6002 45.699 22.6002C44.9936 22.6002 43.3131 22.6699 42.0002 23.8805C41.0572 24.7533 40.6217 25.9382 40.3591 27.0737C40.0939 28.2313 39.7887 30.3143 41.7046 31.0898C42.2957 31.3436 43.1479 31.4134 43.6972 31.4134ZM43.5876 27.1603C43.9111 25.7289 44.2933 24.5276 45.2681 24.5276C46.0321 24.5276 46.0877 25.4215 45.748 26.8575C45.6871 27.1764 45.4084 28.3617 45.0312 28.8661C44.7675 29.2387 44.4562 29.4645 44.1112 29.4645C44.0088 29.4645 43.3993 29.4645 43.3898 28.5595C43.3852 28.1125 43.4764 27.6559 43.5876 27.1603ZM52.4774 31.2294L52.5871 31.1178C52.7427 30.2936 52.7684 30.1001 53.1126 28.4314C53.2851 27.6398 53.6416 25.9014 53.8087 25.282C54.1258 25.1348 54.4328 24.9906 54.7402 24.9906C55.4452 24.9906 55.3593 25.6097 55.3313 25.8566C55.3056 26.2713 55.0469 27.6234 54.777 28.7849L54.6095 29.5343C54.4815 30.0886 54.3419 30.626 54.2185 31.1757L54.2722 31.2853C55.7135 31.2087 56.1344 31.2087 57.368 31.2294L57.5171 31.1178C57.7333 29.8298 57.7919 29.4856 58.1971 27.6119L58.3899 26.7505C58.7763 25.065 58.9718 24.2113 58.6855 23.5152C58.3692 22.7351 57.6267 22.5469 56.9586 22.5469C56.5158 22.5469 55.7039 22.6534 54.9821 23.0099C54.7241 23.1449 54.4654 23.3005 54.2116 23.4569L54.4328 22.6005L54.314 22.4556C52.7753 22.7677 52.4241 22.8095 51.0039 23.0099L50.8946 23.0889C50.7225 24.4578 50.5826 25.4863 49.9708 28.1777C49.7362 29.1727 49.4972 30.1667 49.2536 31.1596L49.3188 31.2853C50.7781 31.2087 51.2136 31.2087 52.4774 31.2294ZM63.0643 31.2849C63.1548 30.8426 63.693 28.2221 63.6976 28.2221C63.6976 28.2221 64.1556 26.2989 64.184 26.2292C64.184 26.2292 64.3281 26.0291 64.4723 25.9497H64.6843C66.686 25.9497 68.9465 25.9497 70.7179 24.6464C71.9235 23.7525 72.7477 22.4327 73.1153 20.8284C73.2107 20.4351 73.2809 19.9674 73.2809 19.4998C73.2809 18.8853 73.1578 18.2773 72.8013 17.8024C71.8978 16.5385 70.0988 16.5151 68.0219 16.5056L66.9984 16.5151C64.34 16.5481 63.274 16.5385 62.8358 16.4849C62.799 16.6784 62.7293 17.0231 62.7293 17.0231C62.7293 17.0231 61.7771 21.4364 61.7771 21.4433L59.3908 31.2688C61.7119 31.2409 62.6637 31.2409 63.0643 31.2849ZM64.8288 23.445C64.8288 23.445 65.8408 19.0405 65.8362 19.0574L65.8691 18.8312L65.8833 18.6595L66.2881 18.7009C66.2881 18.7009 68.3761 18.8803 68.4248 18.8849C69.249 19.2038 69.5886 20.0257 69.3517 21.0983C69.1351 22.0788 68.4996 22.903 67.6823 23.3009C67.0095 23.6382 66.1854 23.6662 65.3363 23.6662H64.787L64.8288 23.445ZM71.1323 27.2419C70.8647 28.3824 70.5573 30.4658 72.4636 31.2083C73.0716 31.4666 73.6163 31.5437 74.1694 31.5157C74.7544 31.4843 75.2961 31.191 75.7978 30.769L75.6617 31.2899L75.7484 31.4011C77.1196 31.3436 77.5451 31.3436 79.0305 31.3551L79.1654 31.2524C79.382 29.977 79.5867 28.7389 80.1506 26.2989C80.425 25.1305 80.6991 23.9733 80.9809 22.8095L80.9368 22.6814C79.4031 22.9655 78.9933 23.0264 77.5175 23.2353L77.4055 23.3266C77.3906 23.4454 77.3749 23.5593 77.3607 23.6731C77.1314 23.3024 76.7987 22.9858 76.2858 22.7888C75.6295 22.5304 74.0886 22.8631 72.7641 24.0691C71.833 24.9304 71.3861 26.1103 71.1323 27.2419ZM74.3538 27.3117C74.6823 25.9056 75.0591 24.7165 76.0366 24.7165C76.6546 24.7165 76.98 25.2866 76.9137 26.2591C76.8571 26.522 76.7983 26.7845 76.7374 27.0464C76.6396 27.4643 76.5338 27.8783 76.4307 28.293C76.3257 28.5767 76.2034 28.8443 76.0696 29.0225C75.8181 29.379 75.2198 29.5998 74.8751 29.5998C74.7774 29.5998 74.1744 29.5998 74.1537 28.7105C74.1487 28.2681 74.24 27.8123 74.3538 27.3117ZM91.1767 22.6699L91.0579 22.5346C89.5403 22.842 89.2654 22.8911 87.8713 23.0793L87.7685 23.1817C87.7639 23.1985 87.7597 23.2238 87.7524 23.2472L87.7478 23.2242C86.7098 25.6193 86.7401 25.1026 85.8952 26.9878C85.8902 26.9019 85.8902 26.8486 85.8856 26.7574L85.674 22.6699L85.5414 22.5346C83.9513 22.842 83.9137 22.8911 82.4456 23.0793L82.331 23.1817C82.3149 23.2307 82.3149 23.2844 82.3053 23.3427L82.3149 23.3638C82.4985 24.3014 82.4544 24.0921 82.6384 25.5725C82.7243 26.2989 82.8389 27.0296 82.9244 27.7472C83.0693 28.9478 83.1505 29.5389 83.3272 31.3716C82.336 33.0076 82.101 33.6271 81.1461 35.0631L81.153 35.0773L80.4806 36.1406C80.404 36.2526 80.3342 36.3292 80.2364 36.3622C80.1291 36.4151 79.9896 36.4247 79.796 36.4247H79.4234L78.8699 38.2662L80.7693 38.2988C81.884 38.2942 82.5847 37.7728 82.9619 37.0721L84.1564 35.0255H84.1372L84.263 34.8814C85.0664 33.1522 91.1767 22.6699 91.1767 22.6699ZM71.1323 46.8536H70.3265L73.3088 36.9905H74.2979L74.6122 35.9746L74.6421 37.1043C74.6053 37.8027 75.1546 38.4218 76.5978 38.3195H78.2673L78.8415 36.4205H78.2136C77.8525 36.4205 77.6846 36.3292 77.7057 36.1337L77.6754 34.9841H74.5846V34.9902C73.5852 35.0109 70.6006 35.0861 69.9965 35.2471C69.2655 35.4349 68.495 35.9896 68.495 35.9896L68.7978 34.9722H65.9063L65.3037 36.9905L62.2819 47.0043H61.6954L61.1204 48.8899H66.8792L66.6864 49.5185H69.5238L69.7124 48.8899H70.5082L71.1323 46.8536ZM68.7694 38.9945C68.3064 39.1226 67.445 39.5113 67.445 39.5113L68.2113 36.9905H70.5082L69.9543 38.827C69.9543 38.827 69.244 38.8692 68.7694 38.9945ZM68.8135 42.5956C68.8135 42.5956 68.0921 42.6864 67.6171 42.7934C67.1495 42.9352 66.272 43.3821 66.272 43.3821L67.0636 40.759H69.3724L68.8135 42.5956ZM67.5263 46.8766H65.2221L65.8902 44.6629H68.1871L67.5263 46.8766ZM73.0758 40.759H76.3974L75.9201 42.305H72.5545L72.0492 43.9947H74.9944L72.7641 47.1346C72.6081 47.3654 72.4682 47.447 72.3126 47.5118C72.1566 47.5911 71.9515 47.6843 71.7146 47.6843H70.8973L70.3361 49.535H72.4728C73.5837 49.535 74.24 49.0298 74.7241 48.3666L76.2536 46.2736L76.5817 48.3988C76.6515 48.7967 76.9375 49.0298 77.1311 49.1203C77.345 49.2276 77.5661 49.4116 77.8786 49.4392C78.2132 49.4534 78.4551 49.4649 78.6161 49.4649H79.6664L80.2966 47.3933H79.8826C79.645 47.3933 79.2352 47.3535 79.1658 47.2791C79.0956 47.1883 79.0956 47.0491 79.0584 46.8367L78.725 44.7069H77.3611L77.9594 43.9947H81.3186L81.8353 42.305H78.7253L79.2095 40.759H82.3103L82.8853 38.8527H73.6416L73.0758 40.759ZM45.0216 47.3071L45.7967 44.728H48.9833L49.5652 42.8098H46.3759L46.8627 41.2225H49.9792L50.5569 39.3648H42.7588L42.1934 41.2225H43.9651L43.4925 42.8095H41.7161L41.1273 44.7606H42.8983L41.8649 48.173C41.7257 48.6246 41.9304 48.7967 42.0604 49.0068C42.1934 49.2111 42.3279 49.3464 42.6308 49.4231C42.9432 49.4929 43.1571 49.5346 43.4476 49.5346H47.0398L47.68 47.4094L46.0877 47.6283C45.7802 47.6283 44.9285 47.5915 45.0216 47.3071ZM45.3869 34.9607L44.5796 36.4201C44.4071 36.7386 44.2511 36.9368 44.1112 37.0277C43.9878 37.1043 43.7432 37.1369 43.3894 37.1369H42.9681L42.405 39.0037H43.8041C44.4773 39.0037 44.9936 38.7572 45.2405 38.6338C45.5058 38.492 45.5755 38.5729 45.7802 38.3751L46.2529 37.9657H50.6221L51.2021 36.0222H48.0035L48.5621 34.9603L45.3869 34.9607ZM51.8373 47.3447C51.7629 47.2373 51.8166 47.0483 51.9304 46.655L53.1245 42.7025H57.373C57.992 42.6937 58.4386 42.6864 58.73 42.6657C59.042 42.6327 59.3816 42.5212 59.7515 42.3211C60.1337 42.1114 60.3292 41.8902 60.494 41.6365C60.678 41.3835 60.974 40.8288 61.2277 39.9743L62.7289 34.9722L58.3206 34.9979C58.3206 34.9979 56.9628 35.198 56.3652 35.4196C55.7622 35.6661 54.9005 36.3549 54.9005 36.3549L55.2984 34.9837H52.5752L48.7625 47.6283C48.6272 48.119 48.5364 48.4755 48.5157 48.6898C48.5088 48.9202 48.8066 49.1486 48.9998 49.3207C49.2279 49.4929 49.5652 49.4649 49.8888 49.4929C50.2292 49.5185 50.7129 49.5346 51.3811 49.5346H53.4741L54.1162 47.3654L52.2428 47.5425C52.0423 47.5425 51.8978 47.4351 51.8373 47.3447ZM53.895 40.033H58.357L58.0733 40.9219C58.0338 40.9426 57.9384 40.8778 57.4841 40.9315H53.6201L53.895 40.033ZM54.7889 37.0506H59.2889L58.9649 38.1217C58.9649 38.1217 56.8443 38.101 56.5047 38.1635C55.0097 38.4222 54.1369 39.2207 54.1369 39.2207L54.7889 37.0506ZM58.1737 43.8993C58.1366 44.0323 58.0779 44.1132 57.9966 44.1741C57.9058 44.2324 57.759 44.2531 57.5405 44.2531H56.9049L56.9425 43.1706H54.2975L54.1901 48.464C54.1863 48.8458 54.2231 49.067 54.5026 49.2441C54.7824 49.4649 55.6434 49.4932 56.8026 49.4932H58.4597L59.0577 47.5114L57.6152 47.5908L57.1353 47.6187C57.0701 47.5908 57.0073 47.5651 56.9375 47.4957C56.8769 47.4355 56.7742 47.4723 56.7911 47.0905L56.8026 45.7335L58.3152 45.671C59.1325 45.671 59.4817 45.405 59.7795 45.152C60.0636 44.9093 60.1567 44.6307 60.2641 44.2531L60.5178 43.0517H58.4386L58.1734 43.8989L58.1737 43.8993Z" fill="#1E1E1E"/>
</g>
<defs>
<clipPath id="clip0_184_3087">
<rect width="98.1331" height="61.3332" fill="white" transform="translate(0.706055 0.910645)"/>
</clipPath>
</defs>
</svg>
