<svg width="144" height="130" viewBox="0 0 144 130" fill="none" xmlns="http://www.w3.org/2000/svg">
<path d="M142 76.618C133.265 92.4361 121.042 113.478 109.872 127.416M109.872 127.416C108.586 129.022 99.9155 116.24 99.5656 115.617C91.8775 101.958 86.2139 87.7125 80.7534 73.0702M109.872 127.416C137.305 33.1422 100.055 -58.876 36.1347 -87.4781C29.7994 -90.313 22.9012 -93.3918 15.7585 -95.8437M15.7585 -95.8437C4.38372 -99.7485 -7.61079 -102.063 -18.9377 -99.2709C-29.3911 -96.6934 -41.9225 -88.9346 -44.9491 -78.0899C-50.6021 -57.8312 -27.8129 -41.7276 -8.94719 -49.1687C7.63147 -55.7072 20.1892 -78.7868 15.7585 -95.8437ZM15.7585 -95.8437C15.6651 -96.2035 15.5641 -96.5606 15.4554 -96.9148C-10.782 -182.411 -115.975 -183.829 -173 -137.928" stroke="#F8F8F8" stroke-width="3.88889" stroke-miterlimit="1.5" stroke-linecap="round" stroke-linejoin="round"/>
</svg>
