<svg width="34" height="24" viewBox="0 0 34 24" fill="none" xmlns="http://www.w3.org/2000/svg">
<path fill-rule="evenodd" clip-rule="evenodd" d="M33.7709 2.4165C33.7709 2.79775 33.6194 3.16339 33.3498 3.43297C33.0802 3.70255 32.7146 3.854 32.3334 3.854H1.66669C1.28544 3.854 0.919804 3.70255 0.650221 3.43297C0.380637 3.16339 0.229187 2.79775 0.229187 2.4165C0.229187 2.03526 0.380637 1.66962 0.650221 1.40004C0.919804 1.13045 1.28544 0.979004 1.66669 0.979004H32.3334C32.7146 0.979004 33.0802 1.13045 33.3498 1.40004C33.6194 1.66962 33.7709 2.03526 33.7709 2.4165ZM33.7709 11.9998C33.7709 12.3811 33.6194 12.7467 33.3498 13.0163C33.0802 13.2859 32.7146 13.4373 32.3334 13.4373H1.66669C1.28544 13.4373 0.919804 13.2859 0.650221 13.0163C0.380637 12.7467 0.229187 12.3811 0.229187 11.9998C0.229187 11.6186 0.380637 11.253 0.650221 10.9834C0.919804 10.7138 1.28544 10.5623 1.66669 10.5623H32.3334C32.7146 10.5623 33.0802 10.7138 33.3498 10.9834C33.6194 11.253 33.7709 11.6186 33.7709 11.9998ZM33.7709 21.5832C33.7709 21.9644 33.6194 22.3301 33.3498 22.5996C33.0802 22.8692 32.7146 23.0207 32.3334 23.0207H1.66669C1.28544 23.0207 0.919804 22.8692 0.650221 22.5996C0.380637 22.3301 0.229187 21.9644 0.229187 21.5832C0.229187 21.2019 0.380637 20.8363 0.650221 20.5667C0.919804 20.2971 1.28544 20.1457 1.66669 20.1457H32.3334C32.7146 20.1457 33.0802 20.2971 33.3498 20.5667C33.6194 20.8363 33.7709 21.2019 33.7709 21.5832Z" fill="white"/>
</svg>
