<svg width="178" height="59" viewBox="0 0 178 59" fill="none" xmlns="http://www.w3.org/2000/svg">
<path d="M67.8322 2.00065L44.6492 57.3094H29.5234L18.1164 13.1642C17.4228 10.4489 16.8251 9.45286 14.7149 8.3092C11.2765 6.44246 5.59516 4.69378 0.59996 3.60177L0.939368 2.00065H25.2882C26.8793 1.99905 28.4186 2.56631 29.6282 3.60003C30.8379 4.63375 31.6381 6.06582 31.8845 7.63777L37.9127 39.6454L52.8023 2.00065H67.8322ZM127.103 39.2543C127.162 24.6524 106.916 23.8482 107.056 17.3256C107.1 15.3408 108.989 13.2306 113.121 12.692C117.963 12.2321 122.84 13.0886 127.236 15.1711L129.745 3.43944C125.465 1.83054 120.932 0.998482 116.36 0.982422C102.216 0.982422 92.2622 8.50842 92.1737 19.2735C92.0851 27.2349 99.2791 31.6693 104.702 34.3255C110.28 37.0334 112.154 38.7747 112.125 41.1949C112.088 44.9136 107.683 46.5442 103.566 46.6106C96.372 46.7213 92.2032 44.6701 88.8681 43.1206L86.2783 55.236C89.6207 56.7707 95.7891 58.1136 102.186 58.1726C117.216 58.1726 127.051 50.7499 127.103 39.2543ZM164.445 57.3094H177.682L166.135 2.00065H153.916C152.611 1.98855 151.332 2.36897 150.245 3.09257C149.158 3.81617 148.314 4.84958 147.822 6.05879L126.358 57.3094H141.38L144.369 49.0455H162.726L164.445 57.3094ZM148.486 37.7122L156.012 16.942L160.35 37.7122H148.486ZM88.2778 2.00065L76.4502 57.3094H62.1361L73.9784 2.00065H88.2778Z" fill="#4D4D4D"/>
</svg>
