<svg width="20" height="20" viewBox="0 0 20 20" fill="none" xmlns="http://www.w3.org/2000/svg">
<path fill-rule="evenodd" clip-rule="evenodd" d="M2 0H18C19.1046 0 20 0.89543 20 2V18C20 19.1046 19.1046 20 18 20H2C0.89543 20 0 19.1046 0 18V2C0 0.89543 0.89543 0 2 0Z" fill="#F5F9FC"/>
<path d="M14.1125 5.86428C13.5777 5.32407 12.9407 4.89576 12.2386 4.60431C11.5365 4.31287 10.7835 4.16413 10.0233 4.16678C6.8383 4.16678 4.24247 6.76262 4.24247 9.94762C4.24247 10.9684 4.5108 11.9601 5.01247 12.8351L4.1958 15.8334L7.2583 15.0284C8.10413 15.4893 9.05497 15.7343 10.0233 15.7343C13.2083 15.7343 15.8041 13.1384 15.8041 9.95345C15.8041 8.40762 15.2033 6.95512 14.1125 5.86428ZM10.0233 14.7543C9.15997 14.7543 8.31413 14.5209 7.5733 14.0834L7.3983 13.9784L5.5783 14.4568L6.06247 12.6834L5.9458 12.5026C5.46615 11.7367 5.21147 10.8513 5.2108 9.94762C5.2108 7.29928 7.36913 5.14095 10.0175 5.14095C11.3008 5.14095 12.5083 5.64262 13.4125 6.55262C13.8602 6.99826 14.215 7.52834 14.4563 8.11211C14.6976 8.69589 14.8207 9.32176 14.8183 9.95345C14.83 12.6018 12.6716 14.7543 10.0233 14.7543ZM12.66 11.1609C12.5141 11.0909 11.8025 10.7409 11.6741 10.6884C11.54 10.6418 11.4466 10.6184 11.3475 10.7584C11.2483 10.9043 10.9741 11.2309 10.8925 11.3243C10.8108 11.4234 10.7233 11.4351 10.5775 11.3593C10.4316 11.2893 9.96497 11.1318 9.41663 10.6418C8.98497 10.2568 8.69913 9.78428 8.61163 9.63845C8.52997 9.49262 8.59997 9.41678 8.6758 9.34095C8.73997 9.27678 8.82163 9.17178 8.89163 9.09012C8.96163 9.00845 8.9908 8.94428 9.03747 8.85095C9.08413 8.75178 9.0608 8.67012 9.0258 8.60012C8.9908 8.53012 8.69913 7.81845 8.58247 7.52678C8.4658 7.24678 8.3433 7.28178 8.2558 7.27595H7.9758C7.87663 7.27595 7.72497 7.31095 7.5908 7.45678C7.46247 7.60262 7.08913 7.95262 7.08913 8.66428C7.08913 9.37595 7.6083 10.0643 7.6783 10.1576C7.7483 10.2568 8.69913 11.7151 10.1458 12.3393C10.49 12.4909 10.7583 12.5784 10.9683 12.6426C11.3125 12.7534 11.6275 12.7359 11.8783 12.7009C12.1583 12.6601 12.7358 12.3509 12.8525 12.0126C12.975 11.6743 12.975 11.3884 12.9341 11.3243C12.8933 11.2601 12.8058 11.2309 12.66 11.1609Z" fill="#010E22"/>
</svg>
