<svg width="14" height="14" viewBox="0 0 14 14" fill="none" xmlns="http://www.w3.org/2000/svg">
<path d="M5.83332 8.74996L8.86082 6.99996L5.83332 5.24996V8.74996ZM12.5767 4.18246C12.6525 4.45663 12.705 4.82413 12.74 5.29079C12.7808 5.75746 12.7983 6.15996 12.7983 6.50996L12.8333 6.99996C12.8333 8.27746 12.74 9.21663 12.5767 9.81746C12.4308 10.3425 12.0925 10.6808 11.5675 10.8266C11.2933 10.9025 10.7917 10.955 10.0217 10.99C9.26332 11.0308 8.56916 11.0483 7.92749 11.0483L6.99999 11.0833C4.55582 11.0833 3.03332 10.99 2.43249 10.8266C1.90749 10.6808 1.56916 10.3425 1.42332 9.81746C1.34749 9.54329 1.29499 9.17579 1.25999 8.70913C1.21916 8.24246 1.20166 7.83996 1.20166 7.48996L1.16666 6.99996C1.16666 5.72246 1.25999 4.78329 1.42332 4.18246C1.56916 3.65746 1.90749 3.31913 2.43249 3.17329C2.70666 3.09746 3.20832 3.04496 3.97832 3.00996C4.73666 2.96913 5.43082 2.95163 6.07249 2.95163L6.99999 2.91663C9.44416 2.91663 10.9667 3.00996 11.5675 3.17329C12.0925 3.31913 12.4308 3.65746 12.5767 4.18246Z" fill="black"/>
</svg>
